<svg width="140" height="121" viewBox="0 0 140 121" fill="none" xmlns="http://www.w3.org/2000/svg">
<path d="M139.01 18.077C139.24 17.397 138.93 16.6871 137.91 16.2271C136.949 15.8728 135.934 15.6868 134.91 15.6771C133.91 15.6071 133.65 15.417 133.47 15.207C132.553 13.8916 131.216 12.9274 129.679 12.473C128.141 12.0186 126.494 12.1012 125.01 12.707C124.594 11.4149 123.706 10.3269 122.524 9.65979C121.341 8.99266 119.951 8.7953 118.63 9.10706C118.74 6.10706 114.94 2.93704 111.53 2.21704C108.12 1.49704 105.41 1.80703 103.53 3.95703C101.53 0.0570328 93.71 -1.04296 89.47 1.02704C87.03 2.20704 84.96 3.42704 83.95 5.65704C83.2891 7.04067 82.9767 8.56498 83.04 10.097C82.0136 9.36561 80.8258 8.89273 79.5775 8.71863C78.3292 8.54453 77.0574 8.67436 75.8701 9.09705C73.4901 10.017 73.3101 11.807 73.2001 13.627C71.7894 13.2167 70.2949 13.1891 68.87 13.5471C67.37 13.9971 66.5001 15.167 66.7101 16.127C65.5901 16.057 63.01 16.917 63 18.067L139.01 18.077Z" fill="#ECECEC"/>
<path d="M101.04 120.044C101.35 119.144 100.93 118.194 99.58 117.584C98.3213 117.12 96.9917 116.876 95.65 116.864C94.38 116.754 93.98 116.504 93.73 116.234C92.514 114.482 90.7363 113.196 88.6907 112.591C86.6452 111.985 84.4542 112.096 82.48 112.904C81.73 109.904 78.05 107.224 74 108.114C74.14 104.114 69.09 99.9044 64.55 98.9444C60.2001 98.0144 56.4 98.4044 53.92 101.264C51.26 96.0744 40.8501 94.6145 35.2101 97.3645C31.9701 98.9345 29.21 100.554 27.87 103.534C26.988 105.372 26.5692 107.398 26.65 109.434C24.46 107.504 20.06 106.974 17.12 108.114C13.96 109.334 13.7201 111.714 13.5601 114.114C11.683 113.57 9.69484 113.535 7.80005 114.014C5.80005 114.604 4.66005 116.164 4.93005 117.434C3.44005 117.344 0 118.484 0 120.014L101.04 120.044Z" fill="#ECECEC"/>
</svg>
