<svg width="121" height="16" viewBox="0 0 121 16" fill="none" xmlns="http://www.w3.org/2000/svg">
<path d="M0.573141 15.4172C0.419141 15.4172 0.293141 15.3682 0.195141 15.2702C0.0971406 15.1722 0.0481406 15.0462 0.0481406 14.8922V1.24218C0.0481406 1.08817 0.0971406 0.962174 0.195141 0.864175C0.293141 0.766174 0.419141 0.717174 0.573141 0.717174H10.0861C10.2401 0.717174 10.3661 0.766174 10.4641 0.864175C10.5621 0.962174 10.6111 1.08817 10.6111 1.24218V2.92217C10.6111 3.06217 10.5621 3.18117 10.4641 3.27918C10.3661 3.37717 10.2401 3.42617 10.0861 3.42617H3.28214V6.72317H9.62414C9.77814 6.72317 9.90414 6.77217 10.0021 6.87018C10.1001 6.96818 10.1491 7.09418 10.1491 7.24817V8.80217C10.1491 8.94218 10.1001 9.06118 10.0021 9.15918C9.90414 9.25718 9.77814 9.30618 9.62414 9.30618H3.28214V12.7082H10.2541C10.4081 12.7082 10.5341 12.7572 10.6321 12.8552C10.7301 12.9532 10.7791 13.0792 10.7791 13.2332V14.8922C10.7791 15.0462 10.7301 15.1722 10.6321 15.2702C10.5341 15.3682 10.4081 15.4172 10.2541 15.4172H0.573141ZM12.4777 15.4172C12.3517 15.4172 12.2467 15.3752 12.1627 15.2912C12.0787 15.1932 12.0367 15.0882 12.0367 14.9762C12.0367 14.9342 12.0437 14.8922 12.0577 14.8502C12.0717 14.8082 12.0857 14.7662 12.0997 14.7242L16.7407 7.92017L12.4147 1.41017C12.3727 1.32617 12.3517 1.24217 12.3517 1.15817C12.3517 1.04617 12.3937 0.948175 12.4777 0.864175C12.5617 0.766174 12.6667 0.717174 12.7927 0.717174H15.3757C15.5577 0.717174 15.6977 0.766174 15.7957 0.864175C15.9077 0.962174 15.9917 1.05317 16.0477 1.13718L18.8617 5.31617L21.6967 1.13718C21.7527 1.05317 21.8367 0.962174 21.9487 0.864175C22.0607 0.766174 22.2077 0.717174 22.3897 0.717174H24.8467C24.9587 0.717174 25.0567 0.766174 25.1407 0.864175C25.2387 0.948175 25.2877 1.04617 25.2877 1.15817C25.2877 1.25617 25.2597 1.34017 25.2037 1.41017L20.8777 7.89918L25.5397 14.7242C25.5677 14.7662 25.5817 14.8082 25.5817 14.8502C25.5957 14.8922 25.6027 14.9342 25.6027 14.9762C25.6027 15.0882 25.5607 15.1932 25.4767 15.2912C25.3927 15.3752 25.2877 15.4172 25.1617 15.4172H22.4947C22.3127 15.4172 22.1657 15.3682 22.0537 15.2702C21.9557 15.1722 21.8787 15.0882 21.8227 15.0182L18.7567 10.6082L15.7117 15.0182C15.6697 15.0882 15.5927 15.1722 15.4807 15.2702C15.3827 15.3682 15.2357 15.4172 15.0397 15.4172H12.4777ZM27.9921 15.4172C27.8381 15.4172 27.7121 15.3682 27.6141 15.2702C27.5161 15.1722 27.4671 15.0462 27.4671 14.8922V1.24218C27.4671 1.08817 27.5161 0.962174 27.6141 0.864175C27.7121 0.766174 27.8381 0.717174 27.9921 0.717174H33.7251C34.8591 0.717174 35.8391 0.892175 36.6651 1.24218C37.5051 1.59217 38.1561 2.12417 38.6181 2.83817C39.0941 3.53817 39.3321 4.41317 39.3321 5.46317C39.3321 6.52717 39.0941 7.40917 38.6181 8.10917C38.1561 8.79517 37.5051 9.30617 36.6651 9.64218C35.8391 9.97818 34.8591 10.1462 33.7251 10.1462H30.9111V14.8922C30.9111 15.0462 30.8621 15.1722 30.7641 15.2702C30.6661 15.3682 30.5401 15.4172 30.3861 15.4172H27.9921ZM30.8481 7.54217H33.6201C34.3341 7.54217 34.8871 7.36717 35.2791 7.01718C35.6851 6.66718 35.8881 6.14217 35.8881 5.44217C35.8881 4.82617 35.7061 4.32217 35.3421 3.93017C34.9921 3.53817 34.4181 3.34217 33.6201 3.34217H30.8481V7.54217ZM41.9989 15.4172C41.8449 15.4172 41.7189 15.3682 41.6209 15.2702C41.5229 15.1722 41.4739 15.0462 41.4739 14.8922V1.24218C41.4739 1.08817 41.5229 0.962174 41.6209 0.864175C41.7189 0.766174 41.8449 0.717174 41.9989 0.717174H51.5119C51.6659 0.717174 51.7919 0.766174 51.8899 0.864175C51.9879 0.962174 52.0369 1.08817 52.0369 1.24218V2.92217C52.0369 3.06217 51.9879 3.18117 51.8899 3.27918C51.7919 3.37717 51.6659 3.42617 51.5119 3.42617H44.7079V6.72317H51.0499C51.2039 6.72317 51.3299 6.77217 51.4279 6.87018C51.5259 6.96818 51.5749 7.09418 51.5749 7.24817V8.80217C51.5749 8.94218 51.5259 9.06118 51.4279 9.15918C51.3299 9.25718 51.2039 9.30618 51.0499 9.30618H44.7079V12.7082H51.6799C51.8339 12.7082 51.9599 12.7572 52.0579 12.8552C52.1559 12.9532 52.2049 13.0792 52.2049 13.2332V14.8922C52.2049 15.0462 52.1559 15.1722 52.0579 15.2702C51.9599 15.3682 51.8339 15.4172 51.6799 15.4172H41.9989ZM55.2265 15.4172C55.0725 15.4172 54.9465 15.3682 54.8485 15.2702C54.7505 15.1722 54.7015 15.0462 54.7015 14.8922V1.24218C54.7015 1.08817 54.7505 0.962174 54.8485 0.864175C54.9465 0.766174 55.0725 0.717174 55.2265 0.717174H60.7915C62.5415 0.717174 63.9205 1.12317 64.9285 1.93517C65.9365 2.73317 66.4405 3.88817 66.4405 5.40017C66.4405 6.42217 66.1955 7.27617 65.7055 7.96217C65.2155 8.64817 64.5575 9.15917 63.7315 9.49518L66.6925 14.7452C66.7345 14.8292 66.7555 14.9062 66.7555 14.9762C66.7555 15.0882 66.7135 15.1932 66.6295 15.2912C66.5455 15.3752 66.4405 15.4172 66.3145 15.4172H63.9835C63.7315 15.4172 63.5425 15.3542 63.4165 15.2282C63.2905 15.0882 63.1995 14.9622 63.1435 14.8502L60.5815 10.0412H58.0405V14.8922C58.0405 15.0462 57.9915 15.1722 57.8935 15.2702C57.7955 15.3682 57.6695 15.4172 57.5155 15.4172H55.2265ZM58.0405 7.37417H60.7285C61.4985 7.37417 62.0655 7.19917 62.4295 6.84917C62.8075 6.49917 62.9965 6.00917 62.9965 5.37917C62.9965 4.74918 62.8145 4.25218 62.4505 3.88817C62.0865 3.52417 61.5125 3.34217 60.7285 3.34217H58.0405V7.37417ZM72.6314 15.4172C72.4774 15.4172 72.3514 15.3682 72.2534 15.2702C72.1554 15.1722 72.1064 15.0462 72.1064 14.8922V3.63617H68.2844C68.1444 3.63617 68.0254 3.58717 67.9274 3.48917C67.8294 3.39117 67.7804 3.27217 67.7804 3.13217V1.24218C67.7804 1.08817 67.8294 0.962174 67.9274 0.864175C68.0254 0.766174 68.1444 0.717174 68.2844 0.717174H79.2884C79.4424 0.717174 79.5684 0.766174 79.6664 0.864175C79.7644 0.962174 79.8134 1.08817 79.8134 1.24218V3.13217C79.8134 3.27217 79.7644 3.39117 79.6664 3.48917C79.5684 3.58717 79.4424 3.63617 79.2884 3.63617H75.4874V14.8922C75.4874 15.0462 75.4384 15.1722 75.3404 15.2702C75.2424 15.3682 75.1164 15.4172 74.9624 15.4172H72.6314ZM82.3583 15.4172C82.2043 15.4172 82.0783 15.3682 81.9803 15.2702C81.8823 15.1722 81.8333 15.0462 81.8333 14.8922V1.24218C81.8333 1.08817 81.8823 0.962174 81.9803 0.864175C82.0783 0.766174 82.2043 0.717174 82.3583 0.717174H91.8713C92.0253 0.717174 92.1513 0.766174 92.2493 0.864175C92.3473 0.962174 92.3963 1.08817 92.3963 1.24218V2.92217C92.3963 3.06217 92.3473 3.18117 92.2493 3.27918C92.1513 3.37717 92.0253 3.42617 91.8713 3.42617H85.0673V6.72317H91.4093C91.5633 6.72317 91.6893 6.77217 91.7873 6.87018C91.8853 6.96818 91.9343 7.09418 91.9343 7.24817V8.80217C91.9343 8.94218 91.8853 9.06118 91.7873 9.15918C91.6893 9.25718 91.5633 9.30618 91.4093 9.30618H85.0673V12.7082H92.0393C92.1933 12.7082 92.3193 12.7572 92.4173 12.8552C92.5153 12.9532 92.5643 13.0792 92.5643 13.2332V14.8922C92.5643 15.0462 92.5153 15.1722 92.4173 15.2702C92.3193 15.3682 92.1933 15.4172 92.0393 15.4172H82.3583ZM95.5858 15.4172C95.4318 15.4172 95.3058 15.3682 95.2078 15.2702C95.1098 15.1722 95.0608 15.0462 95.0608 14.8922V1.24218C95.0608 1.08817 95.1098 0.962174 95.2078 0.864175C95.3058 0.766174 95.4318 0.717174 95.5858 0.717174H104.952C105.106 0.717174 105.232 0.766174 105.33 0.864175C105.428 0.962174 105.477 1.08817 105.477 1.24218V3.02717C105.477 3.18117 105.428 3.30717 105.33 3.40517C105.232 3.50318 105.106 3.55218 104.952 3.55218H98.3368V7.10117H104.532C104.686 7.10117 104.812 7.15017 104.91 7.24817C105.008 7.34617 105.057 7.47217 105.057 7.62617V9.41118C105.057 9.55117 105.008 9.67017 104.91 9.76817C104.812 9.86617 104.686 9.91517 104.532 9.91517H98.3368V14.8922C98.3368 15.0462 98.2878 15.1722 98.1898 15.2702C98.0918 15.3682 97.9658 15.4172 97.8118 15.4172H95.5858ZM112.205 15.4172C112.051 15.4172 111.925 15.3682 111.827 15.2702C111.729 15.1722 111.68 15.0462 111.68 14.8922V10.2722L106.766 1.38917C106.752 1.34717 106.738 1.31217 106.724 1.28417C106.71 1.24217 106.703 1.20017 106.703 1.15817C106.703 1.04617 106.745 0.948175 106.829 0.864175C106.927 0.766174 107.032 0.717174 107.144 0.717174H109.37C109.566 0.717174 109.72 0.766174 109.832 0.864175C109.944 0.962174 110.021 1.05317 110.063 1.13718L113.36 6.91217L116.657 1.13718C116.699 1.05317 116.776 0.962174 116.888 0.864175C117 0.766174 117.154 0.717174 117.35 0.717174H119.576C119.688 0.717174 119.786 0.766174 119.87 0.864175C119.968 0.948175 120.017 1.04617 120.017 1.15817C120.017 1.20017 120.01 1.24217 119.996 1.28417C119.982 1.31217 119.968 1.34717 119.954 1.38917L115.04 10.2722V14.8922C115.04 15.0462 114.991 15.1722 114.893 15.2702C114.795 15.3682 114.669 15.4172 114.515 15.4172H112.205Z" fill="#6369C4"/>
</svg>
