<svg width="57" height="57" viewBox="0 0 57 57" fill="none" xmlns="http://www.w3.org/2000/svg">
<path d="M36.6875 24.7816L14.1959 2.29649C14.0471 2.14711 13.8702 2.02858 13.6755 1.9477C13.4808 1.86683 13.2721 1.8252 13.0612 1.8252C12.8504 1.8252 12.6416 1.86683 12.4469 1.9477C12.2522 2.02858 12.0754 2.14711 11.9266 2.29649L6.30531 7.92101L24.2908 25.913L0 50.2071L5.62453 55.8381C5.77332 55.9875 5.95014 56.106 6.14485 56.1869C6.33956 56.2677 6.54832 56.3094 6.75916 56.3094C6.97 56.3094 7.17876 56.2677 7.37347 56.1869C7.56818 56.106 7.745 55.9875 7.89379 55.8381L36.6907 27.0412C36.989 26.7406 37.1561 26.3342 37.1555 25.9107C37.1549 25.4873 36.9866 25.0813 36.6875 24.7816Z" fill="black" fill-opacity="0.25"/>
<path d="M42.0073 19.478C42.3082 19.7789 42.7164 19.9479 43.1419 19.9479C43.5675 19.9479 43.9756 19.7789 44.2766 19.478L56.6797 7.07487L51.0422 1.42765C50.7413 1.12675 50.3331 0.957703 49.9076 0.957703C49.482 0.957703 49.0739 1.12675 48.7729 1.42765L37.5012 12.6994C37.2042 13.0024 37.0378 13.4097 37.0378 13.834C37.0378 14.2583 37.2042 14.6657 37.5012 14.9687L42.0073 19.478Z" fill="black" fill-opacity="0.25"/>
<path d="M36.6873 24.7816L14.1957 2.29643C14.0469 2.14705 13.8701 2.02852 13.6754 1.94764C13.4807 1.86677 13.2719 1.82513 13.0611 1.82513C12.8503 1.82513 12.6415 1.86677 12.4468 1.94764C12.2521 2.02852 12.0753 2.14705 11.9265 2.29643L6.30518 7.92095L24.2907 25.913H37.1542C37.1545 25.7029 37.1135 25.4949 37.0334 25.3008C36.9533 25.1067 36.8357 24.9302 36.6873 24.7816Z" fill="#6369C4"/>
<path d="M43.1388 31.8876C42.9285 31.8873 42.7202 31.9287 42.5261 32.0094C42.3319 32.0901 42.1556 32.2085 42.0074 32.3577L37.5078 36.8573C37.2108 37.1603 37.0444 37.5676 37.0444 37.9919C37.0444 38.4162 37.2108 38.8236 37.5078 39.1265L46.4195 48.035C46.7204 48.3359 47.1286 48.505 47.5541 48.505C47.9797 48.505 48.3878 48.3359 48.6888 48.035L54.3165 42.404L44.2669 32.3544C44.1189 32.2062 43.943 32.0887 43.7494 32.0085C43.5558 31.9284 43.3483 31.8873 43.1388 31.8876Z" fill="#6369C4"/>
</svg>
