<svg width="334" height="407" viewBox="0 0 334 407" fill="none" xmlns="http://www.w3.org/2000/svg">
<g clip-path="url(#clip0_326_35657)">
<path d="M144.915 241.018C119.455 244.428 95.2751 251.868 75.4251 263.328C18.8551 295.988 18.8551 348.938 75.4251 381.598C131.995 414.258 223.695 414.248 280.265 381.598C300.115 370.128 312.995 356.178 318.915 341.468L144.915 241.018Z" fill="#E8E6FF"/>
<path d="M234.175 292.508L93.095 372.818L110.475 378.718L261.725 308.498L234.175 292.508Z" fill="#8E88E2"/>
<path d="M195.645 270.348L65.6951 360.728L72.4551 366.278L221.735 285.408L195.645 270.348Z" fill="#8E88E2"/>
<path d="M286.145 77.1475C286.055 78.5375 285.765 79.9175 285.715 81.3075C285.625 83.5975 285.715 85.1075 285.715 87.7375C285.715 89.1075 286.245 97.9875 286.165 112.458C286.165 119.768 284.745 121.458 279.235 131.458C276.625 136.198 271.455 142.728 266.865 150.398C263.545 155.948 260.815 163.298 258.245 170.398C254.955 179.498 254.595 184.478 254.475 187.848C254.225 194.198 255.285 220.218 255.765 235.248C256.595 261.538 256.605 265.398 256.765 268.568C257.325 272.418 261.255 278.738 261.575 295.878C261.655 299.968 261.675 304.308 261.655 308.478L234.175 292.608L232.635 285.908C229.635 273.158 224.895 250.998 224.895 250.998C224.895 250.998 222.485 270.778 221.585 277.148C221.287 279.896 221.334 282.671 221.725 285.408L195.685 270.338C195.775 254.458 198.005 190.338 198.315 179.958C193.585 186.648 183.425 202.558 183.425 202.558C183.072 202.747 182.704 202.907 182.325 203.038C181.485 205.108 180.955 206.738 181.265 208.088C181.542 209.191 181.702 210.321 181.745 211.458C181.783 212.481 181.727 213.505 181.575 214.518C181.425 215.518 181.265 216.078 181.205 216.868C181.105 218.358 181.205 219.868 181.205 221.338C181.205 222.418 180.505 223.018 179.455 222.548C178.698 222.166 178.123 221.501 177.855 220.698C177.517 219.567 177.329 218.397 177.295 217.218C177.225 216.286 177.03 215.367 176.715 214.488C176.397 215.091 176.13 215.72 175.915 216.368C174.985 219.438 175.745 222.738 176.015 225.938C176.13 226.434 176.117 226.951 175.978 227.441C175.838 227.931 175.575 228.377 175.215 228.738C175.035 228.888 174.805 229.028 174.595 228.938C174.385 228.848 174.305 228.668 174.225 228.498C173.622 227.133 173.175 225.703 172.895 224.238C172.66 225.581 172.55 226.944 172.565 228.308C172.702 229.381 172.592 230.472 172.245 231.498C172.078 231.922 171.77 232.276 171.374 232.502C170.977 232.727 170.515 232.81 170.065 232.738C169.365 234.978 168.065 235.318 167.715 234.328C167.365 233.338 166.605 227.738 166.355 225.808C166.047 222.928 166.205 220.017 166.825 217.188C167.765 212.706 168.936 208.277 170.335 203.918C170.615 203.028 170.975 201.658 171.335 200.018C170.965 199.628 170.765 199.368 170.765 199.368C170.765 199.368 179.465 175.818 181.865 170.018C184.805 162.918 187.985 155.918 191.405 149.018C193.343 144.896 195.859 141.071 198.875 137.658C201.095 135.218 205.245 133.878 209.485 133.528C211.515 133.508 213.542 133.368 215.555 133.108C216.975 132.818 219.035 132.338 219.555 130.808C219.836 129.359 219.937 127.881 219.855 126.408C217.698 125.866 215.63 125.017 213.715 123.888C210.325 122.028 209.395 120.428 209.395 116.968C209.477 114.623 209.701 112.285 210.065 109.968C210.347 107.589 210.863 105.245 211.605 102.968C211.935 101.828 212.605 100.258 212.105 99.1676C211.745 98.4376 210.245 97.7175 209.705 96.8975C208.996 95.8121 208.528 94.5871 208.333 93.3053C208.138 92.0235 208.221 90.7148 208.575 89.4676C208.638 89.18 208.793 88.9205 209.015 88.7276C209.269 88.5907 209.558 88.5315 209.845 88.5575H213.675C212.275 86.6275 212.675 83.9775 213.105 81.6375C213.127 81.4145 213.206 81.2009 213.335 81.0175C213.795 80.4575 214.685 80.9375 215.265 81.3775C220.395 85.2475 227.355 83.8476 233.265 85.0276C236.241 85.6758 238.997 87.085 241.265 89.1175C242.361 90.0084 243.281 91.0973 243.975 92.3275C244.165 92.6775 244.775 95.1975 244.905 95.2675C246.447 96.0798 247.631 97.4384 248.225 99.0775C248.865 100.628 249.225 103.218 247.175 109.388C247.93 109.894 248.496 110.636 248.785 111.498C249.104 112.319 249.253 113.197 249.223 114.078C249.194 114.959 248.985 115.825 248.612 116.623C248.238 117.421 247.706 118.135 247.048 118.722C246.39 119.309 245.62 119.757 244.785 120.038C243.914 120.378 242.966 120.471 242.045 120.308C241.045 120.098 239.285 125.058 239.205 125.968C239.01 127.238 239.319 128.535 240.066 129.581C240.813 130.627 241.94 131.34 243.205 131.568C244.795 131.918 246.505 131.138 247.975 130.438C251.403 128.588 254.477 126.147 257.055 123.228C262.315 117.698 268.445 111.378 268.445 111.378C268.445 111.378 273.095 86.6776 272.445 82.6576C271.949 80.8628 271.248 79.1313 270.355 77.4975C269.686 75.9885 269.167 74.4177 268.805 72.8075C268.285 70.5875 267.955 68.3175 267.515 66.0775C267.365 65.2875 266.165 61.9775 268.045 62.1775C270.045 62.3975 271.355 65.0075 271.775 66.7575C271.826 67.0557 271.928 67.3431 272.075 67.6076C272.455 68.1876 273.205 67.9575 273.595 67.5175C273.756 67.3076 273.878 67.0705 273.955 66.8175C274.926 64.3663 275.33 61.727 275.135 59.0976C274.815 56.4376 271.915 54.3476 272.825 51.5976C272.88 51.3914 272.99 51.2044 273.145 51.0575C273.615 50.6675 274.325 51.0576 274.815 51.4676C277.015 53.2776 279.345 55.3176 279.935 58.1076C280.025 59.0292 280.24 59.9343 280.575 60.7976C281.065 61.7076 282.025 62.3075 282.475 63.2375C282.715 63.7375 282.795 64.3076 283.085 64.7876C283.375 65.2676 283.935 65.6575 284.245 66.1875C284.505 66.7996 284.673 67.4465 284.745 68.1076C284.929 68.743 285.149 69.3674 285.405 69.9776C286.165 72.2864 286.417 74.7321 286.145 77.1475Z" fill="#7363BC"/>
<path d="M333.105 349.708L141.145 238.878" stroke="#1B1944" stroke-width="0.97" stroke-miterlimit="10"/>
<path d="M67.175 262.118L72.6249 245.398L71.705 226.898C67.955 227.208 65.325 228.568 63.335 233.218C61.345 237.868 58.335 249.458 57.605 252.938C56.7482 257.483 56.64 262.138 57.2849 266.718C57.8449 271.428 58.8549 277.028 59.5049 280.918C59.8049 282.708 59.9649 284.448 60.1449 286.278C60.4535 288.156 60.8912 290.01 61.455 291.828C61.6902 292.708 62.1563 293.509 62.805 294.148C63.215 294.558 63.805 294.648 64.185 295.038C64.565 295.428 64.625 296.038 65.185 296.378C65.745 296.718 66.555 296.618 67.085 296.988C67.6033 297.45 68.1512 297.877 68.725 298.268C69.267 298.481 69.7479 298.824 70.1249 299.268C70.4649 299.708 70.745 300.628 71.415 300.618C72.085 300.608 72.335 299.898 72.415 299.278C72.4894 298.068 72.1739 296.866 71.5149 295.848C70.9461 294.727 70.3151 293.639 69.6249 292.588C68.9436 291.611 68.4893 290.493 68.295 289.318C68.125 288.538 68.295 287.558 69.235 288.088C70.355 288.708 71.495 289.928 72.915 289.798C73.915 289.718 74.0149 288.958 73.5049 288.278C72.6617 287.149 71.903 285.959 71.235 284.718C70.555 283.458 70.005 282.138 69.295 280.898C68.9017 280.253 68.4709 279.632 68.0049 279.038C66.7149 277.388 66.945 275.278 66.945 273.308C66.955 270.528 66.935 265.638 67.175 262.118Z" fill="#FFAAA8"/>
<path d="M71.8251 225.858C66.3551 226.338 63.6451 229.808 61.8251 235.278C59.7921 241.584 58.1227 248.001 56.8251 254.498C56.3099 258.334 56.3099 262.222 56.8251 266.058C57.4251 270.948 58.305 276.968 58.305 276.968C59.7076 277.631 61.2577 277.92 62.805 277.808C67.055 277.738 67.375 276.548 67.375 276.548L67.6151 262.188L73.1151 245.598L71.8251 225.858Z" fill="#2D2559"/>
<path d="M64.595 365.798C64.595 366.798 64.415 367.138 65.595 368.008C67.327 368.984 69.3694 369.253 71.295 368.758C72.5418 368.523 73.6631 367.849 74.455 366.858C75.116 365.972 75.7269 365.051 76.285 364.098C77.3305 363.26 78.4971 362.585 79.745 362.098C81.355 361.378 84.445 359.948 85.555 357.338C86.2223 355.935 86.3435 354.335 85.895 352.848L64.595 365.798Z" fill="#1A2E35"/>
<path d="M74.8949 352.518C71.7749 354.518 69.1449 359.678 64.8949 358.118C64.6849 360.628 64.015 363.328 64.615 365.798C65.6342 366.884 66.9984 367.583 68.4753 367.776C69.9522 367.97 71.4505 367.645 72.7149 366.858C73.8749 365.858 74.5149 364.718 75.6349 363.678C76.5487 362.89 77.586 362.258 78.7049 361.808C79.9872 361.2 81.2297 360.512 82.4249 359.748C89.3049 354.658 85.8749 345.348 74.8949 352.518Z" fill="#2B454E"/>
<path d="M92.5449 378.598C92.5449 379.598 92.6149 380.427 93.2549 380.867C93.8949 381.307 98.675 382.107 99.955 382.247C101.235 382.387 101.405 381.558 102.305 381.858C103.205 382.158 105.305 383.677 108.395 384.367C111.485 385.057 114.075 385.797 118.395 384.367C122.715 382.937 123.155 381.258 123.095 379.798C123.035 378.338 92.5449 378.598 92.5449 378.598Z" fill="#1A2E35"/>
<path d="M93.1651 368.818C92.4651 371.818 91.7251 376.308 92.5451 378.598C93.4151 379.458 96.3352 379.968 98.8952 380.318C101.254 380.604 103.541 381.315 105.645 382.418C110.595 384.478 119.305 385.238 122.775 380.578C126.235 374.348 108.205 375.878 105.995 368.678C105.195 366.018 96.4451 369.528 93.1651 368.818Z" fill="#2B454E"/>
<path d="M66.185 322.778C68.595 297.198 66.185 287.778 69.185 267.368C69.185 267.368 105.575 266.468 106.455 278.678C106.455 278.678 108.805 322.498 108.525 327.878C108.395 333.328 107.035 366.398 107.035 370.238C98.105 374.668 92.575 371.328 92.575 371.328C91.895 364.328 88.935 348.378 89.795 335.538L85.725 315.078C85.725 315.078 80.185 348.538 75.635 360.078C72.995 363.978 65.515 363.078 64.265 360.708C64.235 360.728 63.085 330.808 66.185 322.778Z" fill="#D268CC"/>
<path d="M66.185 322.778C68.595 297.198 66.185 287.778 69.185 267.368C69.185 267.368 105.575 266.468 106.455 278.678C106.455 278.678 108.805 322.498 108.525 327.878C108.395 333.328 107.035 366.398 107.035 370.238C98.105 374.668 92.575 371.328 92.575 371.328C91.895 364.328 88.935 348.378 89.795 335.538L85.725 315.078C85.725 315.078 80.185 348.538 75.635 360.078C72.995 363.978 65.515 363.078 64.265 360.708C64.235 360.728 63.085 330.808 66.185 322.778Z" fill="#2D2559"/>
<path opacity="0.3" d="M73.4249 289.178C74.4949 293.098 78.7449 296.498 81.4249 297.458L81.7549 299.558C81.4649 302.238 81.185 306.558 80.895 311.208C80.6803 315.898 80.1962 320.573 79.4449 325.208C78.5249 330.368 72.975 355.878 72.365 362.308C72.5692 362.247 72.7696 362.173 72.965 362.088C73.625 355.208 79.105 330.378 80.015 325.308C80.7764 320.637 81.2638 315.926 81.4749 311.198C81.6949 307.708 81.9049 304.368 82.1249 301.788L84.1249 314.188L83.0049 329.688L85.6849 315.038L82.9249 294.618C79.197 294.035 75.8148 292.098 73.4249 289.178ZM100.485 292.838C103.775 289.448 103.325 282.668 103.035 278.428C103.035 278.078 103.035 277.758 102.975 277.428H102.395C102.395 277.738 102.395 278.068 102.465 278.428C102.725 282.428 103.135 288.608 100.465 291.948C100.215 286.298 99.895 281.338 99.465 278.058L98.895 278.128C100.025 287.128 100.495 308.898 100.675 322.888C100.825 334.648 102.675 360.598 101.885 372.058L102.475 371.918C103.245 360.328 101.405 334.598 101.255 322.918C101.135 314.248 100.905 302.598 100.485 292.838Z" fill="black"/>
<path d="M92.6951 222.318L91.2451 231.008L78.4851 231.118L80.5151 221.758L92.6951 222.318Z" fill="#FFAAA8"/>
<path d="M96.5549 206.878C97.4949 208.008 100.435 211.448 100.555 212.118L98.265 213.598L96.5549 206.878Z" fill="#FF9090"/>
<path d="M89.6849 198.238C93.3549 197.748 95.805 200.238 97.085 208.088C97.135 208.388 97.5949 208.858 97.9749 210.018C99.5749 215.018 98.8749 219.808 98.0649 221.098C95.9749 222.868 93.6249 223.568 90.1849 223.368C87.5649 223.218 81.1249 222.238 77.6449 218.798C73.5649 214.798 71.1549 208.908 73.8849 205.578C77.7649 200.908 87.6849 198.508 89.6849 198.238Z" fill="#FFAAA8"/>
<path d="M98.0851 221.098C97.6351 221.818 95.0251 223.398 92.5051 223.458L92.6951 222.078C94.531 222.025 96.3483 221.695 98.0851 221.098Z" fill="#FF9090"/>
<path d="M90.6849 212.188C90.6573 212.314 90.5933 212.429 90.501 212.519C90.4087 212.609 90.2921 212.67 90.1656 212.694C90.039 212.719 89.908 212.705 89.7889 212.656C89.6697 212.607 89.5675 212.524 89.4949 212.418C89.1041 211.874 88.6511 211.377 88.145 210.938C87.5101 210.437 86.7114 210.191 85.9049 210.248C82.9049 210.558 83.7349 214.508 85.2549 215.848C87.7349 218.048 88.9749 216.058 88.9749 216.058C88.9749 216.058 90.805 219.848 88.335 222.158C85.7212 222.471 83.0732 222.335 80.5049 221.758C78.2434 219.977 76.226 217.905 74.5049 215.598C70.2649 210.058 69.395 203.848 71.985 202.188C71.785 200.188 72.785 197.188 76.855 195.308C79.7754 193.969 82.9961 193.421 86.1949 193.718C89.0249 193.808 92.5449 195.008 95.1149 192.718C95.4591 193.503 95.6106 194.359 95.5566 195.215C95.5027 196.071 95.245 196.902 94.8049 197.638C95.2264 197.455 95.7008 197.434 96.1365 197.58C96.5723 197.726 96.9386 198.028 97.1649 198.428C97.3589 198.845 97.3916 199.318 97.2568 199.758C97.122 200.197 96.8292 200.571 96.4349 200.808C96.7204 200.96 96.9441 201.207 97.0681 201.506C97.1921 201.805 97.2086 202.138 97.1149 202.448C97.0066 202.753 96.8138 203.022 96.5588 203.222C96.3039 203.422 95.9974 203.545 95.6749 203.578C95.0776 203.625 94.4768 203.601 93.8849 203.508C93.1249 205.848 90.5349 206.718 88.9749 206.668C90.7949 208.758 91.0749 211.098 90.6849 212.188Z" fill="#1A2E35"/>
<path d="M94.855 231.308C93.055 228.898 93.0451 227.668 91.3251 226.248C89.1751 224.478 80.3251 222.638 79.6151 223.398C78.5505 224.43 77.4033 225.373 76.1851 226.218C76.1851 226.218 76.6351 227.658 82.3151 229.038C87.6851 230.348 89.865 230.168 94.855 231.308Z" fill="white"/>
<path d="M77.8951 225.118C81.0151 225.648 86.6551 227.118 89.6151 227.968C92.0843 228.84 94.4357 230.016 96.6151 231.468C96.6151 231.468 102.305 233.948 103.005 234.728C103.705 235.508 105.135 239.088 105.715 246.898C106.295 254.708 106.715 284.298 106.715 284.298C105.475 284.664 104.216 284.968 102.945 285.208L101.865 276.338L100.665 285.648C100.665 285.648 89.9451 286.368 80.9751 284.498C72.0051 282.628 68.0251 276.858 68.0251 276.858C68.0251 276.858 69.3651 261.098 69.0251 257.858C68.6851 254.618 65.8551 241.158 66.1751 235.858C66.4951 230.558 68.5051 226.308 71.7851 225.858C75.8051 225.268 77.8951 225.118 77.8951 225.118Z" fill="#43327C"/>
<path d="M76.375 226.738C77.185 227.058 78.015 227.308 78.855 227.548C79.695 227.788 80.5251 228.028 81.3651 228.258C83.0351 228.708 84.7151 229.168 86.3651 229.588C88.0151 230.008 89.7451 230.328 91.4651 230.588L96.6151 231.428C94.8751 231.348 93.135 231.178 91.405 230.958C89.6703 230.758 87.9501 230.448 86.2551 230.028C84.5551 229.588 82.8851 229.118 81.2551 228.578C79.5841 228.089 77.9527 227.474 76.375 226.738Z" fill="#2B454E"/>
<path opacity="0.3" d="M79.615 237.558C80.325 241.068 80.895 244.618 81.265 248.188C81.6565 251.76 81.7735 255.357 81.615 258.948L81.005 269.678L80.685 275.018L80.295 280.378L80.445 274.998L80.655 269.628L81.145 258.898C81.3233 255.327 81.2464 251.748 80.915 248.188C80.765 246.408 80.575 244.628 80.355 242.858C80.135 241.088 79.865 239.338 79.615 237.558Z" fill="black"/>
<path d="M91.955 306.898L91.865 334.538C91.865 335.878 92.805 336.658 93.965 337.338L96.865 339.028C97.1879 339.263 97.5583 339.425 97.9504 339.503C98.3424 339.581 98.7467 339.572 99.135 339.478C99.6777 339.338 100.199 339.126 100.685 338.848C100.704 338.854 100.726 338.854 100.745 338.848L100.905 338.758L130.685 321.677C131.754 321.067 132.644 320.185 133.264 319.121C133.883 318.057 134.212 316.849 134.215 315.617L134.305 290.448C134.289 290.133 134.199 289.828 134.043 289.555C133.886 289.282 133.668 289.05 133.405 288.878L128.405 286.008C128.127 285.862 127.818 285.786 127.505 285.786C127.192 285.786 126.883 285.862 126.605 286.008L92.835 305.348C92.5669 305.511 92.3462 305.742 92.195 306.018C92.044 306.287 91.9616 306.589 91.955 306.898Z" fill="#2B454E"/>
<path d="M91.955 306.898L91.865 334.538C91.865 335.878 92.805 336.658 93.965 337.338L96.865 339.028C97.1879 339.263 97.5583 339.426 97.9504 339.503C98.3424 339.581 98.7467 339.572 99.135 339.478C99.6777 339.339 100.199 339.127 100.685 338.848C99.525 339.388 98.615 338.778 98.615 337.408L98.705 311.408C98.725 310.934 98.8661 310.472 99.115 310.068L92.225 306.068C92.0711 306.32 91.9787 306.604 91.955 306.898Z" fill="#1A2E35"/>
<path d="M98.685 311.358C98.7105 310.884 98.848 310.423 99.0861 310.013C99.3243 309.603 99.6563 309.255 100.055 308.998L131.975 290.718C133.235 289.998 134.265 290.598 134.255 292.048L134.175 315.608C134.174 316.84 133.849 318.05 133.23 319.116C132.612 320.182 131.724 321.065 130.655 321.678L100.885 338.728C99.625 339.458 98.595 338.858 98.595 337.408L98.685 311.358Z" fill="#375A64"/>
<path d="M130.035 286.938L96.215 306.508C95.7363 306.783 95.3384 307.179 95.0611 307.656C94.7838 308.134 94.6369 308.675 94.6349 309.228L94.5349 337.677L95.0549 337.978L95.145 309.228C95.15 308.766 95.2742 308.314 95.5054 307.914C95.7367 307.515 96.0672 307.182 96.465 306.948L130.545 287.237L130.035 286.938Z" fill="#7161B9"/>
<path d="M118.035 290.428V294.708L119.705 295.708V290.028C119.705 289.728 119.505 289.618 119.255 289.758L118.035 290.428Z" fill="#7161B9"/>
<path opacity="0.3" d="M118.035 290.428V294.708L119.705 295.708V290.028C119.705 289.728 119.505 289.618 119.255 289.758L118.035 290.428Z" fill="black"/>
<path d="M106.255 294.618V301.548L107.845 302.478L108.925 301.858V296.178C108.932 296.017 108.977 295.861 109.057 295.721C109.137 295.582 109.25 295.464 109.385 295.378L117.555 290.698L119.255 289.698C119.505 289.558 119.705 289.698 119.705 289.968V295.648L120.795 295.028V288.108C120.8 288.078 120.8 288.048 120.795 288.018C120.776 287.874 120.726 287.736 120.648 287.613C120.571 287.491 120.467 287.386 120.345 287.308L119.665 286.908C119.522 286.839 119.364 286.803 119.205 286.803C119.046 286.803 118.889 286.839 118.745 286.908L106.745 293.798C106.602 293.883 106.481 294.002 106.396 294.145C106.31 294.289 106.262 294.451 106.255 294.618Z" fill="#7161B9"/>
<path opacity="0.2" d="M107.855 295.548V302.478L108.935 301.858V296.178C108.942 296.017 108.987 295.861 109.067 295.721C109.147 295.582 109.26 295.464 109.395 295.378L117.565 290.698L119.265 289.698C119.515 289.558 119.715 289.698 119.715 289.968V295.648L120.805 295.028V288.108C120.81 288.078 120.81 288.047 120.805 288.018C120.805 287.788 120.575 287.708 120.355 287.838L108.355 294.728C108.21 294.811 108.088 294.93 108 295.074C107.913 295.217 107.863 295.38 107.855 295.548Z" fill="black"/>
<path d="M118.685 289.018C118.044 286.856 117.543 284.654 117.185 282.428C116.775 280.088 116.895 277.728 116.675 273.358L106.675 275.918C107.309 278.026 107.833 280.165 108.245 282.328C108.675 284.668 107.835 286.778 107.855 289.088C107.815 290.147 108.097 291.193 108.665 292.088C108.975 292.548 109.375 292.948 109.665 293.408C110.275 294.308 110.255 294.958 109.345 295.468C109.176 295.588 109.043 295.752 108.962 295.943C108.881 296.133 108.854 296.343 108.885 296.548C109.17 296.88 109.545 297.123 109.965 297.248C110.144 297.3 110.329 297.327 110.515 297.328C110.705 297.328 110.915 297.238 111.095 297.248C111.275 297.258 111.455 297.398 111.665 297.408C111.877 297.418 112.089 297.397 112.295 297.348C112.691 297.306 113.066 297.15 113.375 296.898C113.665 296.618 113.775 296.188 114.105 295.968C114.435 295.748 115.165 295.908 115.705 295.878C115.976 295.857 116.236 295.765 116.461 295.613C116.685 295.46 116.866 295.252 116.985 295.008C117.061 294.74 117.198 294.494 117.385 294.288C117.615 294.108 117.935 294.118 118.205 294.008C118.36 293.937 118.499 293.834 118.612 293.707C118.726 293.579 118.812 293.43 118.865 293.268C119.256 291.868 119.193 290.38 118.685 289.018Z" fill="#FFAAA8"/>
<path d="M105.805 235.688C108.435 237.018 109.095 237.568 110.545 240.508C111.995 243.448 113.905 251.508 114.465 256.368C115.025 261.228 116.465 265.888 116.795 270.828C117.125 275.768 117.105 279.748 117.105 279.748C115.684 280.474 114.135 280.916 112.545 281.048C110.955 281.302 109.335 281.302 107.745 281.048C107.745 281.048 104.055 267.418 103.095 263.688C102.135 259.958 98.6851 249.848 98.6851 249.848C97.5251 243.268 99.1251 235.848 100.935 233.468C100.935 233.468 103.165 234.358 105.805 235.688Z" fill="#2D2559"/>
</g>
<defs>
<clipPath id="clip0_326_35657">
<rect width="332.69" height="405.95" fill="white" transform="translate(0.655029 0.177734)"/>
</clipPath>
</defs>
</svg>
