<svg width="334" height="407" viewBox="0 0 334 407" fill="none" xmlns="http://www.w3.org/2000/svg">
<g clip-path="url(#clip0_326_35657)">
<path opacity="0.05" d="M271.391 86.7911C284.732 81.1149 287.412 57.3979 277.379 33.8178C267.345 10.2377 248.397 -4.2763 235.057 1.39996C221.717 7.07622 219.037 30.7932 229.07 54.3733C239.103 77.9535 258.051 92.4674 271.391 86.7911Z" fill="#FFAB03"/>
<path opacity="0.05" d="M265.855 73.7801C275.13 69.8338 276.993 53.3444 270.017 36.9501C263.042 20.5558 249.868 10.4648 240.594 14.4111C231.319 18.3575 229.456 34.8468 236.431 51.2411C243.407 67.6354 256.581 77.7265 265.855 73.7801Z" fill="#FFAB03"/>
<path opacity="0.05" d="M261.772 64.1826C268.048 61.5121 269.309 50.3539 264.588 39.2601C259.868 28.1662 250.953 21.3378 244.677 24.0083C238.401 26.6789 237.14 37.8371 241.86 48.9309C246.581 60.0248 255.495 66.8532 261.772 64.1826Z" fill="#FFAB03"/>
<path d="M250.885 31.1179C251.037 31.3068 251.149 31.5246 251.215 31.7579L253.805 40.2479C254.012 40.9565 254.427 41.5868 254.995 42.0579L260.785 46.5179C260.97 46.6916 261.115 46.9028 261.212 47.1374C261.309 47.3719 261.354 47.6244 261.345 47.8779L257.245 50.8779C256.948 51.1226 256.723 51.4437 256.594 51.8066C256.465 52.1696 256.438 52.5606 256.515 52.9379L257.455 60.848L252.455 54.478C252.258 54.1894 251.999 53.9493 251.695 53.7761C251.392 53.6028 251.053 53.5009 250.705 53.478H250.505L245.415 54.108C245.22 53.9357 245.066 53.7228 244.962 53.4844C244.858 53.246 244.808 52.9879 244.815 52.728L245.815 45.6179C245.888 44.8841 245.739 44.1451 245.385 43.4979L241.195 35.6379C241.086 35.443 241.015 35.2292 240.985 35.0079L246.365 37.0679C246.569 37.1493 246.786 37.1933 247.005 37.1979C247.321 37.194 247.629 37.0971 247.891 36.9193C248.152 36.7414 248.355 36.4905 248.475 36.1979L250.875 31.0779M250.705 29.8779C250.585 29.8804 250.468 29.9189 250.37 29.9884C250.272 30.0579 250.197 30.1553 250.155 30.2679L247.565 35.7679C247.52 35.8806 247.443 35.9776 247.343 36.0469C247.244 36.1163 247.126 36.1549 247.005 36.158C246.909 36.1564 246.813 36.136 246.725 36.098L240.935 33.8779C240.843 33.8398 240.745 33.8195 240.645 33.8179C239.945 33.8179 239.725 34.9579 240.315 36.0679L244.505 43.9279C244.758 44.3888 244.869 44.9141 244.825 45.4379L243.825 52.548C243.675 53.648 244.565 55.0679 245.375 55.0679H245.455L250.625 54.4279H250.705C250.906 54.4493 251.101 54.5152 251.273 54.6207C251.446 54.7261 251.594 54.8687 251.705 55.038L256.875 61.658C256.986 61.8277 257.133 61.9706 257.306 62.0761C257.479 62.1817 257.673 62.2472 257.875 62.2679C258.325 62.2679 258.635 61.8079 258.545 61.0179L257.545 52.7579C257.498 52.5579 257.503 52.3492 257.559 52.1515C257.615 51.9538 257.72 51.7736 257.865 51.6279L262.055 48.6279C262.725 48.1479 262.355 46.428 261.435 45.728L255.645 41.2579C255.243 40.9166 254.951 40.4645 254.805 39.9579L252.215 31.468C251.925 30.538 251.275 29.918 250.755 29.918L250.705 29.8779Z" fill="#F9C041"/>
<path d="M240.325 36.1078C239.825 35.1678 239.905 34.1978 240.375 33.9278L244.525 31.5378C244.614 31.4897 244.714 31.4644 244.815 31.4644C244.916 31.4644 245.016 31.4897 245.105 31.5378L248.905 32.9978L250.165 30.3278C250.222 30.1943 250.32 30.0823 250.445 30.0078C250.965 29.7178 254.445 27.6678 254.595 27.6078C255.115 27.3078 255.995 27.9778 256.325 29.0878L258.915 37.5778C259.064 38.0853 259.36 38.5374 259.765 38.8778L265.545 43.3378C266.465 44.0478 266.835 45.7678 266.175 46.2478L261.985 49.2478C261.836 49.3906 261.728 49.5707 261.671 49.7693C261.615 49.968 261.613 50.178 261.665 50.3778L262.665 58.6378C262.725 58.8476 262.722 59.0705 262.656 59.2786C262.591 59.4867 262.465 59.6707 262.295 59.8078L258.145 62.2078C257.815 62.3978 257.335 62.2078 256.885 61.6778L251.715 55.0578C251.608 54.8851 251.462 54.7406 251.288 54.6362C251.114 54.5318 250.918 54.4706 250.715 54.4578L245.545 55.0978C244.715 55.1978 243.755 53.7078 243.915 52.5778L244.915 45.4678C244.959 44.9439 244.848 44.4186 244.595 43.9578L240.325 36.1078Z" fill="#FFAB03"/>
<path opacity="0.1" d="M250.415 30.0176C250.935 29.6776 251.825 30.3376 252.175 31.4776L254.755 39.9576L258.915 37.5575L256.325 29.0776C255.985 27.9676 255.115 27.3076 254.595 27.5976C254.485 27.6576 250.975 29.7076 250.445 29.9976L250.415 30.0176Z" fill="black"/>
<path opacity="0.25" d="M257.825 51.658L261.945 49.298L266.135 46.298C266.615 45.948 266.545 44.968 266.135 44.168L261.975 46.5679C262.395 47.3579 262.455 48.3479 261.975 48.6979L257.825 51.658Z" fill="black"/>
<path opacity="0.15" d="M258.495 61.0176C258.565 61.6276 258.395 62.0176 258.095 62.1876C258.375 62.0276 261.925 59.9676 262.255 59.7876C262.42 59.6467 262.542 59.4623 262.607 59.2555C262.673 59.0487 262.679 58.8277 262.625 58.6176L261.625 50.3576C261.584 50.1659 261.588 49.9672 261.639 49.7777C261.689 49.5882 261.784 49.4134 261.915 49.2676L257.795 51.6276C257.667 51.777 257.575 51.9541 257.526 52.1448C257.478 52.3356 257.474 52.5351 257.515 52.7276L258.495 61.0176Z" fill="black"/>
<path d="M257.825 61.798C257.715 61.798 257.505 61.6879 257.265 61.3779L252.085 54.7579C251.933 54.5311 251.732 54.3414 251.496 54.2029C251.261 54.0644 250.997 53.9807 250.725 53.9579H250.585L245.405 54.598C245.199 54.5583 245.016 54.4399 244.895 54.2679C244.701 54.0474 244.553 53.7908 244.458 53.5128C244.364 53.2348 244.326 52.9409 244.345 52.6479L245.345 45.538C245.409 44.911 245.28 44.2795 244.975 43.728L240.785 35.858C240.648 35.6454 240.56 35.405 240.527 35.1543C240.494 34.9036 240.517 34.6487 240.595 34.408C240.595 34.348 240.655 34.348 240.675 34.348C240.711 34.3386 240.749 34.3386 240.785 34.348L246.575 36.5679C246.721 36.6267 246.877 36.6572 247.035 36.658C247.25 36.6547 247.459 36.5886 247.637 36.4677C247.815 36.3469 247.953 36.1766 248.035 35.978L250.625 30.478C250.675 30.378 250.705 30.3779 250.725 30.3779C250.945 30.3779 251.465 30.7779 251.725 31.5779L254.315 40.0579C254.484 40.6667 254.832 41.2104 255.315 41.6179L261.095 46.0779C261.332 46.288 261.522 46.5448 261.655 46.8323C261.788 47.1197 261.859 47.4315 261.865 47.7479C261.865 48.0079 261.795 48.1479 261.735 48.1879L257.545 51.1879C257.324 51.3843 257.158 51.6357 257.065 51.9167C256.972 52.1977 256.955 52.4982 257.015 52.788L258.015 61.048C258.065 61.2684 258.033 61.4994 257.925 61.6979L257.825 61.798Z" fill="#FAFAFA"/>
</g>
<defs>
<clipPath id="clip0_326_35657">
<rect width="332.69" height="405.95" fill="white" transform="translate(0.655029 0.177734)"/>
</clipPath>
</defs>
</svg>
