<svg width="1440" height="513" viewBox="0 0 1440 513" fill="none" xmlns="http://www.w3.org/2000/svg">
<rect y="0.309387" width="1440" height="512" fill="url(#paint0_linear_686_2251)"/>
<mask id="mask0_686_2251" style="mask-type:alpha" maskUnits="userSpaceOnUse" x="0" y="0" width="1440" height="513">
<rect y="0.309387" width="1440" height="512" fill="url(#paint1_linear_686_2251)"/>
</mask>
<g mask="url(#mask0_686_2251)">
<path opacity="0.1" d="M1271.79 57.0109L867.307 -347.351C864.631 -350.037 861.451 -352.169 857.95 -353.623C854.448 -355.078 850.694 -355.826 846.902 -355.826C843.111 -355.826 839.356 -355.078 835.855 -353.623C832.353 -352.169 829.173 -350.037 826.498 -347.351L725.407 -246.202L1048.85 77.3573L612.016 514.25L713.164 615.515C715.84 618.201 719.02 620.333 722.522 621.788C726.023 623.242 729.777 623.991 733.569 623.991C737.361 623.991 741.115 623.242 744.616 621.788C748.118 620.333 751.298 618.201 753.974 615.515L1271.84 97.6453C1277.21 92.2405 1280.21 84.9311 1280.2 77.3161C1280.19 69.701 1277.17 62.4003 1271.79 57.0109Z" fill="white"/>
</g>
<g clip-path="url(#clip0_686_2251)">
<path d="M998.915 140.784C999.145 140.104 998.835 139.394 997.815 138.934C996.854 138.58 995.839 138.394 994.815 138.384C993.815 138.314 993.555 138.124 993.375 137.914C992.459 136.599 991.121 135.635 989.584 135.18C988.046 134.726 986.4 134.808 984.915 135.414C984.499 134.122 983.611 133.034 982.429 132.367C981.247 131.7 979.857 131.503 978.535 131.814C978.645 128.814 974.845 125.644 971.435 124.924C968.025 124.204 965.315 124.514 963.435 126.664C961.435 122.764 953.615 121.664 949.375 123.734C946.935 124.914 944.865 126.134 943.855 128.364C943.194 129.748 942.882 131.272 942.945 132.804C941.919 132.073 940.731 131.6 939.483 131.426C938.235 131.252 936.963 131.382 935.775 131.804C933.395 132.724 933.215 134.514 933.105 136.334C931.695 135.924 930.2 135.896 928.775 136.254C927.275 136.704 926.405 137.874 926.615 138.834C925.495 138.764 922.915 139.624 922.905 140.774L998.915 140.784Z" fill="#ECECEC"/>
<path d="M958.686 190.314C958.996 189.414 958.576 188.464 957.226 187.854C955.967 187.39 954.637 187.146 953.296 187.134C952.026 187.024 951.626 186.774 951.376 186.504C950.16 184.752 948.382 183.466 946.336 182.861C944.291 182.255 942.1 182.366 940.126 183.174C939.376 180.174 935.696 177.494 931.646 178.384C931.786 174.384 926.736 170.174 922.196 169.214C917.846 168.284 914.046 168.674 911.566 171.534C908.906 166.344 898.496 164.884 892.856 167.634C889.616 169.204 886.856 170.824 885.516 173.804C884.633 175.642 884.215 177.668 884.296 179.704C882.106 177.774 877.706 177.244 874.766 178.384C871.606 179.604 871.366 181.984 871.206 184.384C869.329 183.84 867.34 183.805 865.446 184.284C863.446 184.874 862.306 186.434 862.576 187.704C861.086 187.614 857.646 188.754 857.646 190.284L958.686 190.314Z" fill="#ECECEC"/>
<path opacity="0.05" d="M1128.39 139.948C1141.73 134.271 1144.41 110.554 1134.38 86.9742C1124.35 63.3941 1105.4 48.8801 1092.06 54.5564C1078.72 60.2327 1076.04 83.9497 1086.07 107.53C1096.1 131.11 1115.05 145.624 1128.39 139.948Z" fill="#FFAB03"/>
<path opacity="0.05" d="M1122.86 126.937C1132.13 122.99 1133.99 106.501 1127.02 90.1065C1120.04 73.7122 1106.87 63.6212 1097.59 67.5675C1088.32 71.5139 1086.46 88.0032 1093.43 104.398C1100.41 120.792 1113.58 130.883 1122.86 126.937Z" fill="#FFAB03"/>
<path opacity="0.05" d="M1118.77 117.339C1125.05 114.669 1126.31 103.51 1121.59 92.4166C1116.87 81.3227 1107.95 74.4943 1101.68 77.1648C1095.4 79.8354 1094.14 90.9936 1098.86 102.087C1103.58 113.181 1112.5 120.01 1118.77 117.339Z" fill="#FFAB03"/>
<path d="M1097.33 89.2643C1096.83 88.3243 1096.91 87.3543 1097.38 87.0843L1101.53 84.6943C1101.61 84.6462 1101.71 84.621 1101.82 84.621C1101.92 84.621 1102.02 84.6462 1102.11 84.6943L1105.91 86.1543L1107.17 83.4843C1107.22 83.3508 1107.32 83.2388 1107.45 83.1643C1107.97 82.8743 1111.45 80.8243 1111.6 80.7643C1112.12 80.4643 1113 81.1343 1113.33 82.2443L1115.92 90.7343C1116.07 91.2418 1116.36 91.694 1116.77 92.0343L1122.55 96.4943C1123.47 97.2043 1123.84 98.9243 1123.18 99.4043L1118.99 102.404C1118.84 102.547 1118.73 102.727 1118.67 102.926C1118.62 103.124 1118.61 103.335 1118.67 103.534L1119.67 111.794C1119.73 112.004 1119.72 112.227 1119.66 112.435C1119.59 112.643 1119.47 112.827 1119.3 112.964L1115.15 115.364C1114.82 115.554 1114.34 115.364 1113.89 114.834L1108.72 108.214C1108.61 108.042 1108.46 107.897 1108.29 107.793C1108.11 107.688 1107.92 107.627 1107.72 107.614L1102.55 108.254C1101.72 108.354 1100.76 106.864 1100.92 105.734L1101.92 98.6243C1101.96 98.1005 1101.85 97.5752 1101.6 97.1143L1097.33 89.2643Z" fill="#FFAB03"/>
<path opacity="0.1" d="M1107.42 83.1743C1107.94 82.8343 1108.83 83.4943 1109.18 84.6343L1111.76 93.1143L1115.92 90.7143L1113.33 82.2343C1112.99 81.1243 1112.12 80.4643 1111.6 80.7543C1111.49 80.8143 1107.98 82.8643 1107.45 83.1543L1107.42 83.1743Z" fill="black"/>
<path opacity="0.25" d="M1114.83 104.814L1118.95 102.454L1123.14 99.4543C1123.62 99.1043 1123.55 98.1243 1123.14 97.3243L1118.98 99.7243C1119.4 100.514 1119.46 101.504 1118.98 101.854L1114.83 104.814Z" fill="black"/>
<path opacity="0.15" d="M1115.5 114.174C1115.57 114.784 1115.4 115.174 1115.1 115.344C1115.38 115.184 1118.93 113.124 1119.26 112.944C1119.42 112.803 1119.54 112.619 1119.61 112.412C1119.67 112.205 1119.68 111.984 1119.63 111.774L1118.63 103.514C1118.58 103.323 1118.59 103.124 1118.64 102.934C1118.69 102.745 1118.78 102.57 1118.92 102.424L1114.8 104.784C1114.67 104.934 1114.58 105.111 1114.53 105.302C1114.48 105.492 1114.47 105.692 1114.52 105.884L1115.5 114.174Z" fill="black"/>
<path d="M1114.83 114.954C1114.72 114.954 1114.51 114.844 1114.27 114.534L1109.09 107.914C1108.93 107.687 1108.73 107.498 1108.5 107.359C1108.26 107.221 1108 107.137 1107.73 107.114H1107.59L1102.4 107.754C1102.2 107.715 1102.02 107.596 1101.9 107.424C1101.7 107.204 1101.55 106.947 1101.46 106.669C1101.36 106.391 1101.33 106.097 1101.35 105.804L1102.35 98.6943C1102.41 98.0674 1102.28 97.4358 1101.98 96.8843L1097.79 89.0143C1097.65 88.8017 1097.56 88.5614 1097.53 88.3106C1097.49 88.0599 1097.52 87.805 1097.6 87.5643C1097.6 87.5043 1097.66 87.5043 1097.68 87.5043C1097.71 87.495 1097.75 87.495 1097.79 87.5043L1103.58 89.7243C1103.72 89.783 1103.88 89.8136 1104.04 89.8143C1104.25 89.811 1104.46 89.7449 1104.64 89.6241C1104.81 89.5032 1104.95 89.3329 1105.04 89.1343L1107.63 83.6343C1107.68 83.5343 1107.71 83.5343 1107.73 83.5343C1107.95 83.5343 1108.47 83.9343 1108.73 84.7343L1111.32 93.2143C1111.48 93.823 1111.83 94.3667 1112.32 94.7743L1118.1 99.2343C1118.33 99.4443 1118.52 99.7012 1118.66 99.9886C1118.79 100.276 1118.86 100.588 1118.87 100.904C1118.87 101.164 1118.8 101.304 1118.74 101.344L1114.55 104.344C1114.32 104.541 1114.16 104.792 1114.06 105.073C1113.97 105.354 1113.95 105.655 1114.02 105.944L1115.02 114.204C1115.07 114.425 1115.03 114.656 1114.93 114.854L1114.83 114.954Z" fill="#FAFAFA"/>
<path d="M1107.88 84.2743C1108.04 84.4632 1108.15 84.6809 1108.21 84.9143L1110.8 93.4043C1111.01 94.1128 1111.43 94.7432 1111.99 95.2143L1117.78 99.6743C1117.97 99.848 1118.12 100.059 1118.21 100.294C1118.31 100.528 1118.35 100.781 1118.34 101.034L1114.24 104.034C1113.95 104.279 1113.72 104.6 1113.59 104.963C1113.47 105.326 1113.44 105.717 1113.51 106.094L1114.45 114.004L1109.45 107.634C1109.26 107.346 1109 107.106 1108.7 106.932C1108.39 106.759 1108.05 106.657 1107.7 106.634H1107.5L1102.41 107.264C1102.22 107.092 1102.07 106.879 1101.96 106.641C1101.86 106.402 1101.81 106.144 1101.81 105.884L1102.81 98.7743C1102.89 98.0404 1102.74 97.3015 1102.38 96.6543L1098.19 88.7943C1098.09 88.5993 1098.01 88.3856 1097.98 88.1643L1103.36 90.2243C1103.57 90.3056 1103.79 90.3497 1104 90.3543C1104.32 90.3503 1104.63 90.2534 1104.89 90.0756C1105.15 89.8978 1105.36 89.6469 1105.47 89.3543L1107.87 84.2343M1107.7 83.0343C1107.58 83.0367 1107.47 83.0752 1107.37 83.1447C1107.27 83.2143 1107.2 83.3117 1107.15 83.4243L1104.56 88.9243C1104.52 89.0369 1104.44 89.134 1104.34 89.2033C1104.24 89.2726 1104.13 89.3112 1104 89.3143C1103.91 89.3127 1103.81 89.2923 1103.72 89.2543L1097.93 87.0343C1097.84 86.9962 1097.74 86.9758 1097.64 86.9743C1096.94 86.9743 1096.72 88.1143 1097.31 89.2243L1101.5 97.0843C1101.76 97.5451 1101.87 98.0704 1101.82 98.5943L1100.82 105.704C1100.67 106.804 1101.56 108.224 1102.37 108.224H1102.45L1107.62 107.584H1107.7C1107.91 107.606 1108.1 107.672 1108.27 107.777C1108.45 107.882 1108.59 108.025 1108.7 108.194L1113.87 114.814C1113.99 114.984 1114.13 115.127 1114.31 115.232C1114.48 115.338 1114.67 115.404 1114.87 115.424C1115.32 115.424 1115.63 114.964 1115.54 114.174L1114.54 105.914C1114.5 105.714 1114.5 105.506 1114.56 105.308C1114.61 105.11 1114.72 104.93 1114.86 104.784L1119.05 101.784C1119.72 101.304 1119.35 99.5843 1118.43 98.8843L1112.64 94.4143C1112.24 94.073 1111.95 93.6208 1111.8 93.1143L1109.21 84.6243C1108.92 83.6943 1108.27 83.0743 1107.75 83.0743L1107.7 83.0343Z" fill="#F9C041"/>
<path d="M1001.92 294.174C976.456 297.584 952.276 305.024 932.426 316.484C875.856 349.144 875.856 402.094 932.426 434.754C988.996 467.414 1080.7 467.404 1137.27 434.754C1157.12 423.284 1170 409.334 1175.92 394.624L1001.92 294.174Z" fill="#E8E6FF"/>
<path d="M1091.18 345.664L950.096 425.974L967.476 431.874L1118.73 361.654L1091.18 345.664Z" fill="#8E88E2"/>
<path d="M1052.65 323.504L922.695 413.884L929.455 419.434L1078.74 338.564L1052.65 323.504Z" fill="#8E88E2"/>
<path d="M1143.15 130.304C1143.06 131.694 1142.77 133.074 1142.72 134.464C1142.63 136.754 1142.72 138.264 1142.72 140.894C1142.72 142.264 1143.24 151.144 1143.16 165.614C1143.16 172.924 1141.74 174.614 1136.23 184.614C1133.62 189.354 1128.45 195.884 1123.86 203.554C1120.54 209.104 1117.81 216.454 1115.24 223.554C1111.95 232.654 1111.59 237.634 1111.47 241.004C1111.22 247.354 1112.29 273.374 1112.77 288.404C1113.6 314.694 1113.61 318.554 1113.77 321.724C1114.33 325.574 1118.26 331.894 1118.58 349.034C1118.66 353.124 1118.67 357.464 1118.65 361.634L1091.17 345.764L1089.64 339.064C1086.64 326.314 1081.9 304.154 1081.9 304.154C1081.9 304.154 1079.49 323.934 1078.59 330.304C1078.29 333.053 1078.33 335.828 1078.72 338.564L1052.68 323.494C1052.77 307.614 1055 243.494 1055.31 233.114C1050.58 239.804 1040.42 255.714 1040.42 255.714C1040.07 255.904 1039.7 256.064 1039.33 256.194C1038.49 258.264 1037.96 259.894 1038.27 261.244C1038.54 262.348 1038.7 263.477 1038.74 264.614C1038.78 265.637 1038.73 266.662 1038.58 267.674C1038.43 268.674 1038.27 269.234 1038.21 270.024C1038.11 271.514 1038.21 273.024 1038.21 274.494C1038.21 275.574 1037.51 276.174 1036.46 275.704C1035.7 275.323 1035.12 274.658 1034.85 273.854C1034.52 272.724 1034.33 271.554 1034.29 270.374C1034.22 269.442 1034.03 268.524 1033.72 267.644C1033.4 268.248 1033.13 268.877 1032.91 269.524C1031.98 272.594 1032.75 275.894 1033.02 279.094C1033.13 279.591 1033.12 280.108 1032.98 280.598C1032.84 281.088 1032.58 281.534 1032.22 281.894C1032.04 282.044 1031.8 282.184 1031.59 282.094C1031.38 282.004 1031.3 281.824 1031.22 281.654C1030.62 280.289 1030.18 278.86 1029.9 277.394C1029.66 278.738 1029.55 280.1 1029.56 281.464C1029.7 282.538 1029.59 283.629 1029.24 284.654C1029.08 285.079 1028.77 285.433 1028.37 285.658C1027.98 285.884 1027.52 285.967 1027.06 285.894C1026.36 288.134 1025.07 288.474 1024.72 287.484C1024.37 286.494 1023.6 280.894 1023.35 278.964C1023.05 276.084 1023.21 273.174 1023.83 270.344C1024.76 265.863 1025.94 261.434 1027.34 257.074C1027.62 256.184 1027.98 254.814 1028.34 253.174C1027.97 252.784 1027.77 252.524 1027.77 252.524C1027.77 252.524 1036.46 228.974 1038.86 223.174C1041.8 216.074 1044.98 209.074 1048.4 202.174C1050.34 198.052 1052.86 194.227 1055.87 190.814C1058.09 188.374 1062.24 187.034 1066.48 186.684C1068.51 186.665 1070.54 186.525 1072.55 186.264C1073.97 185.974 1076.03 185.494 1076.55 183.964C1076.84 182.516 1076.94 181.038 1076.85 179.564C1074.7 179.023 1072.63 178.174 1070.72 177.044C1067.33 175.184 1066.4 173.584 1066.4 170.124C1066.48 167.78 1066.7 165.442 1067.06 163.124C1067.35 160.746 1067.86 158.401 1068.6 156.124C1068.93 154.984 1069.6 153.414 1069.1 152.324C1068.74 151.594 1067.25 150.874 1066.71 150.054C1066 148.969 1065.53 147.744 1065.33 146.462C1065.14 145.18 1065.22 143.872 1065.58 142.624C1065.64 142.337 1065.79 142.077 1066.02 141.884C1066.27 141.747 1066.56 141.688 1066.84 141.714H1070.67C1069.27 139.784 1069.67 137.134 1070.1 134.794C1070.13 134.571 1070.21 134.358 1070.34 134.174C1070.8 133.614 1071.69 134.094 1072.27 134.534C1077.4 138.404 1084.36 137.004 1090.27 138.184C1093.24 138.833 1096 140.242 1098.27 142.274C1099.36 143.165 1100.28 144.254 1100.97 145.484C1101.16 145.834 1101.77 148.354 1101.9 148.424C1103.45 149.237 1104.63 150.595 1105.22 152.234C1105.86 153.784 1106.22 156.374 1104.17 162.544C1104.93 163.051 1105.5 163.793 1105.78 164.654C1106.1 165.476 1106.25 166.354 1106.22 167.235C1106.19 168.116 1105.99 168.982 1105.61 169.78C1105.24 170.578 1104.71 171.292 1104.05 171.879C1103.39 172.466 1102.62 172.913 1101.78 173.194C1100.91 173.534 1099.97 173.628 1099.04 173.464C1098.04 173.254 1096.29 178.214 1096.21 179.124C1096.01 180.395 1096.32 181.692 1097.07 182.738C1097.81 183.784 1098.94 184.497 1100.21 184.724C1101.8 185.074 1103.5 184.294 1104.97 183.594C1108.4 181.745 1111.48 179.304 1114.05 176.384C1119.31 170.854 1125.44 164.534 1125.44 164.534C1125.44 164.534 1130.1 139.834 1129.44 135.814C1128.95 134.02 1128.25 132.288 1127.35 130.654C1126.69 129.145 1126.17 127.574 1125.8 125.964C1125.28 123.744 1124.96 121.474 1124.52 119.234C1124.37 118.444 1123.16 115.134 1125.04 115.334C1127.04 115.554 1128.36 118.164 1128.78 119.914C1128.83 120.212 1128.93 120.5 1129.08 120.764C1129.46 121.344 1130.2 121.114 1130.59 120.674C1130.76 120.464 1130.88 120.227 1130.96 119.974C1131.93 117.523 1132.33 114.884 1132.14 112.254C1131.82 109.594 1128.92 107.504 1129.83 104.754C1129.88 104.548 1129.99 104.361 1130.15 104.214C1130.62 103.824 1131.32 104.214 1131.81 104.624C1134.01 106.434 1136.34 108.474 1136.93 111.264C1137.02 112.186 1137.24 113.091 1137.58 113.954C1138.07 114.864 1139.02 115.464 1139.47 116.394C1139.71 116.894 1139.8 117.464 1140.09 117.944C1140.38 118.424 1140.93 118.814 1141.24 119.344C1141.5 119.956 1141.67 120.603 1141.74 121.264C1141.93 121.9 1142.15 122.524 1142.4 123.134C1143.16 125.443 1143.42 127.889 1143.15 130.304Z" fill="#7363BC"/>
<path d="M1190.11 402.864L998.146 292.034" stroke="#1B1944" stroke-width="0.97" stroke-miterlimit="10"/>
<path d="M924.176 315.274L929.626 298.554L928.706 280.054C924.956 280.364 922.326 281.724 920.336 286.374C918.346 291.024 915.336 302.614 914.606 306.094C913.749 310.639 913.641 315.294 914.286 319.874C914.846 324.584 915.856 330.184 916.506 334.074C916.806 335.864 916.966 337.604 917.146 339.434C917.454 341.312 917.892 343.167 918.456 344.984C918.691 345.864 919.157 346.665 919.806 347.304C920.216 347.714 920.806 347.804 921.186 348.194C921.566 348.584 921.626 349.194 922.186 349.534C922.746 349.874 923.556 349.774 924.086 350.144C924.604 350.606 925.152 351.034 925.726 351.424C926.268 351.637 926.749 351.981 927.126 352.424C927.466 352.864 927.746 353.784 928.416 353.774C929.086 353.764 929.336 353.054 929.416 352.434C929.49 351.224 929.175 350.022 928.516 349.004C927.947 347.883 927.316 346.795 926.626 345.744C925.944 344.767 925.49 343.65 925.296 342.474C925.126 341.694 925.296 340.714 926.236 341.244C927.356 341.864 928.496 343.084 929.916 342.954C930.916 342.874 931.016 342.114 930.506 341.434C929.662 340.305 928.904 339.115 928.236 337.874C927.556 336.614 927.006 335.294 926.296 334.054C925.902 333.41 925.472 332.789 925.006 332.194C923.716 330.544 923.946 328.434 923.946 326.464C923.956 323.684 923.936 318.794 924.176 315.274Z" fill="#FFAAA8"/>
<path d="M928.825 279.014C923.355 279.494 920.645 282.964 918.825 288.434C916.792 294.74 915.122 301.157 913.825 307.654C913.31 311.49 913.31 315.378 913.825 319.214C914.425 324.104 915.305 330.124 915.305 330.124C916.707 330.787 918.257 331.077 919.805 330.964C924.055 330.894 924.375 329.704 924.375 329.704L924.615 315.344L930.115 298.754L928.825 279.014Z" fill="#2D2559"/>
<path d="M921.595 418.954C921.595 419.954 921.415 420.294 922.595 421.164C924.327 422.141 926.369 422.41 928.295 421.914C929.542 421.68 930.663 421.005 931.455 420.014C932.116 419.129 932.727 418.208 933.285 417.254C934.33 416.416 935.497 415.742 936.745 415.254C938.355 414.534 941.445 413.104 942.555 410.494C943.222 409.092 943.343 407.491 942.895 406.004L921.595 418.954Z" fill="#1A2E35"/>
<path d="M931.895 405.674C928.775 407.674 926.145 412.834 921.895 411.274C921.685 413.784 921.015 416.484 921.615 418.954C922.634 420.04 923.998 420.74 925.475 420.933C926.952 421.126 928.451 420.802 929.715 420.014C930.875 419.014 931.515 417.874 932.635 416.834C933.549 416.047 934.586 415.415 935.705 414.964C936.987 414.357 938.23 413.669 939.425 412.904C946.305 407.814 942.875 398.504 931.895 405.674Z" fill="#2B454E"/>
<path d="M949.545 431.754C949.545 432.754 949.615 433.584 950.255 434.024C950.895 434.464 955.675 435.264 956.955 435.404C958.235 435.544 958.405 434.714 959.305 435.014C960.205 435.314 962.305 436.834 965.395 437.524C968.485 438.214 971.075 438.954 975.395 437.524C979.715 436.094 980.155 434.414 980.095 432.954C980.035 431.494 949.545 431.754 949.545 431.754Z" fill="#1A2E35"/>
<path d="M950.165 421.974C949.465 424.974 948.725 429.464 949.545 431.754C950.415 432.614 953.335 433.124 955.895 433.474C958.254 433.76 960.541 434.472 962.645 435.574C967.595 437.634 976.305 438.394 979.775 433.734C983.235 427.504 965.205 429.034 962.995 421.834C962.195 419.174 953.445 422.684 950.165 421.974Z" fill="#2B454E"/>
<path d="M923.185 375.934C925.595 350.354 923.185 340.934 926.185 320.524C926.185 320.524 962.575 319.624 963.455 331.834C963.455 331.834 965.805 375.654 965.525 381.034C965.395 386.484 964.035 419.554 964.035 423.394C955.105 427.824 949.575 424.484 949.575 424.484C948.895 417.484 945.935 401.534 946.795 388.694L942.725 368.234C942.725 368.234 937.185 401.694 932.635 413.234C929.995 417.134 922.515 416.234 921.265 413.864C921.235 413.884 920.085 383.964 923.185 375.934Z" fill="#D268CC"/>
<path d="M923.185 375.934C925.595 350.354 923.185 340.934 926.185 320.524C926.185 320.524 962.575 319.624 963.455 331.834C963.455 331.834 965.805 375.654 965.525 381.034C965.395 386.484 964.035 419.554 964.035 423.394C955.105 427.824 949.575 424.484 949.575 424.484C948.895 417.484 945.935 401.534 946.795 388.694L942.725 368.234C942.725 368.234 937.185 401.694 932.635 413.234C929.995 417.134 922.515 416.234 921.265 413.864C921.235 413.884 920.085 383.964 923.185 375.934Z" fill="#2D2559"/>
<path opacity="0.3" d="M930.425 342.334C931.495 346.254 935.745 349.654 938.425 350.614L938.755 352.714C938.465 355.394 938.185 359.714 937.895 364.364C937.681 369.055 937.196 373.729 936.445 378.364C935.525 383.524 929.975 409.034 929.365 415.464C929.569 415.403 929.77 415.33 929.965 415.244C930.625 408.364 936.105 383.534 937.015 378.464C937.777 373.793 938.264 369.082 938.475 364.354C938.695 360.864 938.905 357.524 939.125 354.944L941.125 367.344L940.005 382.844L942.685 368.194L939.925 347.774C936.197 347.191 932.815 345.254 930.425 342.334ZM957.485 345.994C960.775 342.604 960.325 335.824 960.035 331.584C960.035 331.234 960.035 330.914 959.975 330.584H959.395C959.395 330.894 959.395 331.224 959.465 331.584C959.725 335.584 960.135 341.764 957.465 345.104C957.215 339.454 956.895 334.494 956.465 331.214L955.895 331.284C957.025 340.284 957.495 362.054 957.675 376.044C957.825 387.804 959.675 413.754 958.885 425.214L959.475 425.074C960.245 413.484 958.405 387.754 958.255 376.074C958.135 367.404 957.905 355.754 957.485 345.994Z" fill="black"/>
<path d="M949.695 275.474L948.245 284.164L935.485 284.274L937.515 274.914L949.695 275.474Z" fill="#FFAAA8"/>
<path d="M953.556 260.034C954.496 261.164 957.436 264.604 957.556 265.274L955.266 266.754L953.556 260.034Z" fill="#FF9090"/>
<path d="M946.685 251.394C950.355 250.904 952.805 253.394 954.085 261.244C954.135 261.544 954.595 262.014 954.975 263.174C956.575 268.174 955.875 272.964 955.065 274.254C952.975 276.024 950.625 276.724 947.185 276.524C944.565 276.374 938.125 275.394 934.645 271.954C930.565 267.954 928.155 262.064 930.885 258.734C934.765 254.064 944.685 251.664 946.685 251.394Z" fill="#FFAAA8"/>
<path d="M955.085 274.254C954.635 274.974 952.025 276.554 949.505 276.614L949.695 275.234C951.531 275.182 953.348 274.852 955.085 274.254Z" fill="#FF9090"/>
<path d="M947.685 265.344C947.658 265.47 947.594 265.585 947.501 265.675C947.409 265.765 947.292 265.826 947.166 265.851C947.039 265.875 946.908 265.862 946.789 265.813C946.67 265.764 946.568 265.681 946.495 265.574C946.104 265.03 945.651 264.533 945.145 264.094C944.51 263.594 943.712 263.348 942.905 263.404C939.905 263.714 940.735 267.664 942.255 269.004C944.735 271.204 945.975 269.214 945.975 269.214C945.975 269.214 947.805 273.004 945.335 275.314C942.721 275.627 940.073 275.492 937.505 274.914C935.244 273.133 933.226 271.062 931.505 268.754C927.265 263.214 926.395 257.004 928.985 255.344C928.785 253.344 929.785 250.344 933.855 248.464C936.776 247.126 939.996 246.578 943.195 246.874C946.025 246.964 949.545 248.164 952.115 245.874C952.459 246.66 952.611 247.516 952.557 248.372C952.503 249.228 952.245 250.058 951.805 250.794C952.227 250.611 952.701 250.591 953.137 250.736C953.573 250.882 953.939 251.184 954.165 251.584C954.359 252.001 954.392 252.475 954.257 252.914C954.122 253.354 953.829 253.728 953.435 253.964C953.721 254.117 953.944 254.364 954.068 254.663C954.192 254.962 954.209 255.294 954.115 255.604C954.007 255.91 953.814 256.178 953.559 256.378C953.304 256.578 952.998 256.702 952.675 256.734C952.078 256.781 951.477 256.758 950.885 256.664C950.125 259.004 947.535 259.874 945.975 259.824C947.795 261.914 948.075 264.254 947.685 265.344Z" fill="#1A2E35"/>
<path d="M951.856 284.464C950.056 282.054 950.046 280.824 948.326 279.404C946.176 277.634 937.326 275.794 936.616 276.554C935.551 277.586 934.404 278.529 933.186 279.374C933.186 279.374 933.636 280.814 939.316 282.194C944.686 283.504 946.866 283.324 951.856 284.464Z" fill="white"/>
<path d="M934.896 278.274C938.016 278.804 943.656 280.274 946.616 281.124C949.085 281.997 951.436 283.172 953.616 284.624C953.616 284.624 959.306 287.104 960.006 287.884C960.706 288.664 962.136 292.244 962.716 300.054C963.296 307.864 963.716 337.454 963.716 337.454C962.475 337.821 961.217 338.125 959.946 338.364L958.866 329.494L957.666 338.804C957.666 338.804 946.946 339.524 937.976 337.654C929.006 335.784 925.026 330.014 925.026 330.014C925.026 330.014 926.366 314.254 926.026 311.014C925.686 307.774 922.856 294.314 923.176 289.014C923.496 283.714 925.506 279.464 928.786 279.014C932.806 278.424 934.896 278.274 934.896 278.274Z" fill="#43327C"/>
<path d="M933.375 279.894C934.185 280.214 935.015 280.464 935.855 280.704C936.695 280.944 937.525 281.184 938.365 281.414C940.035 281.864 941.715 282.324 943.365 282.744C945.015 283.164 946.745 283.484 948.465 283.744L953.615 284.584C951.875 284.504 950.135 284.334 948.405 284.114C946.67 283.915 944.95 283.604 943.255 283.184C941.555 282.744 939.885 282.274 938.255 281.734C936.584 281.245 934.953 280.63 933.375 279.894Z" fill="#2B454E"/>
<path opacity="0.3" d="M936.615 290.714C937.325 294.224 937.895 297.774 938.265 301.344C938.657 304.917 938.774 308.514 938.615 312.104L938.005 322.834L937.685 328.174L937.295 333.534L937.445 328.154L937.655 322.784L938.145 312.054C938.324 308.483 938.247 304.904 937.915 301.344C937.765 299.564 937.575 297.784 937.355 296.014C937.135 294.244 936.865 292.494 936.615 290.714Z" fill="black"/>
<path d="M948.955 360.054L948.865 387.694C948.865 389.034 949.805 389.814 950.965 390.494L953.865 392.184C954.188 392.42 954.559 392.582 954.951 392.66C955.343 392.737 955.747 392.729 956.135 392.634C956.678 392.495 957.199 392.283 957.685 392.004C957.705 392.011 957.726 392.011 957.745 392.004L957.905 391.914L987.685 374.834C988.755 374.224 989.644 373.342 990.264 372.278C990.884 371.214 991.212 370.006 991.215 368.774L991.305 343.604C991.289 343.29 991.199 342.984 991.043 342.712C990.887 342.439 990.668 342.207 990.405 342.034L985.405 339.164C985.128 339.019 984.819 338.943 984.505 338.943C984.192 338.943 983.883 339.019 983.605 339.164L949.835 358.504C949.567 358.668 949.346 358.899 949.195 359.174C949.044 359.443 948.962 359.746 948.955 360.054Z" fill="#2B454E"/>
<path d="M948.955 360.054L948.865 387.694C948.865 389.034 949.805 389.814 950.965 390.494L953.865 392.184C954.188 392.42 954.559 392.582 954.951 392.66C955.343 392.737 955.747 392.729 956.135 392.634C956.678 392.495 957.199 392.283 957.685 392.004C956.525 392.544 955.615 391.934 955.615 390.564L955.705 364.564C955.725 364.09 955.866 363.629 956.115 363.224L949.225 359.224C949.071 359.476 948.979 359.76 948.955 360.054Z" fill="#1A2E35"/>
<path d="M955.686 364.514C955.711 364.041 955.849 363.58 956.087 363.17C956.325 362.759 956.657 362.411 957.056 362.154L988.976 343.874C990.236 343.154 991.266 343.754 991.256 345.204L991.176 368.764C991.175 369.996 990.849 371.206 990.231 372.272C989.613 373.338 988.725 374.222 987.656 374.834L957.886 391.884C956.626 392.614 955.596 392.014 955.596 390.564L955.686 364.514Z" fill="#375A64"/>
<path d="M987.035 340.094L953.215 359.664C952.737 359.939 952.339 360.336 952.061 360.813C951.784 361.29 951.637 361.832 951.635 362.384L951.535 390.834L952.055 391.134L952.145 362.384C952.15 361.923 952.274 361.47 952.506 361.071C952.737 360.671 953.067 360.338 953.465 360.104L987.545 340.394L987.035 340.094Z" fill="#7161B9"/>
<path d="M975.035 343.584V347.864L976.705 348.864V343.184C976.705 342.884 976.505 342.774 976.255 342.914L975.035 343.584Z" fill="#7161B9"/>
<path opacity="0.3" d="M975.035 343.584V347.864L976.705 348.864V343.184C976.705 342.884 976.505 342.774 976.255 342.914L975.035 343.584Z" fill="black"/>
<path d="M963.255 347.774V354.704L964.845 355.634L965.925 355.014V349.334C965.932 349.174 965.977 349.017 966.057 348.878C966.137 348.739 966.25 348.621 966.385 348.534L974.555 343.854L976.255 342.854C976.505 342.714 976.705 342.854 976.705 343.124V348.804L977.795 348.184V341.264C977.8 341.235 977.8 341.204 977.795 341.174C977.776 341.03 977.726 340.892 977.648 340.77C977.57 340.647 977.467 340.543 977.345 340.464L976.665 340.064C976.521 339.995 976.364 339.959 976.205 339.959C976.046 339.959 975.888 339.995 975.745 340.064L963.745 346.954C963.601 347.039 963.481 347.159 963.396 347.302C963.31 347.445 963.262 347.608 963.255 347.774Z" fill="#7161B9"/>
<path opacity="0.2" d="M964.855 348.704V355.634L965.935 355.014V349.334C965.942 349.174 965.988 349.017 966.068 348.878C966.148 348.739 966.26 348.621 966.396 348.534L974.565 343.854L976.266 342.854C976.516 342.714 976.716 342.854 976.716 343.124V348.804L977.805 348.184V341.264C977.81 341.235 977.81 341.204 977.805 341.174C977.805 340.944 977.575 340.864 977.355 340.994L965.355 347.884C965.21 347.968 965.088 348.087 965.001 348.23C964.913 348.374 964.863 348.537 964.855 348.704Z" fill="black"/>
<path d="M975.685 342.174C975.044 340.012 974.543 337.811 974.185 335.584C973.775 333.244 973.895 330.884 973.675 326.514L963.675 329.074C964.309 331.182 964.833 333.322 965.245 335.484C965.675 337.824 964.835 339.934 964.855 342.244C964.815 343.303 965.097 344.349 965.665 345.244C965.975 345.704 966.375 346.104 966.665 346.564C967.275 347.464 967.255 348.114 966.345 348.624C966.176 348.744 966.043 348.909 965.962 349.099C965.881 349.29 965.854 349.499 965.885 349.704C966.17 350.037 966.545 350.279 966.965 350.404C967.144 350.456 967.329 350.483 967.515 350.484C967.705 350.484 967.915 350.394 968.095 350.404C968.275 350.414 968.455 350.554 968.665 350.564C968.877 350.574 969.089 350.554 969.295 350.504C969.691 350.462 970.066 350.306 970.375 350.054C970.665 349.774 970.775 349.344 971.105 349.124C971.435 348.904 972.165 349.064 972.705 349.034C972.975 349.013 973.236 348.922 973.46 348.769C973.685 348.617 973.866 348.408 973.985 348.164C974.061 347.897 974.198 347.65 974.385 347.444C974.615 347.264 974.935 347.274 975.205 347.164C975.36 347.093 975.498 346.99 975.612 346.863C975.726 346.736 975.812 346.586 975.865 346.424C976.256 345.024 976.193 343.536 975.685 342.174Z" fill="#FFAAA8"/>
<path d="M962.806 288.844C965.436 290.174 966.096 290.724 967.546 293.664C968.996 296.604 970.906 304.664 971.466 309.524C972.026 314.384 973.466 319.044 973.796 323.984C974.126 328.924 974.106 332.904 974.106 332.904C972.685 333.63 971.136 334.072 969.546 334.204C967.956 334.459 966.336 334.459 964.746 334.204C964.746 334.204 961.056 320.574 960.096 316.844C959.136 313.114 955.686 303.004 955.686 303.004C954.526 296.424 956.126 289.004 957.936 286.624C957.936 286.624 960.166 287.514 962.806 288.844Z" fill="#2D2559"/>
</g>
<defs>
<linearGradient id="paint0_linear_686_2251" x1="6.86814e-06" y1="512.309" x2="990.273" y2="-458.455" gradientUnits="userSpaceOnUse">
<stop stop-color="#363882"/>
<stop offset="1" stop-color="#272966"/>
</linearGradient>
<linearGradient id="paint1_linear_686_2251" x1="6.86814e-06" y1="512.309" x2="990.273" y2="-458.455" gradientUnits="userSpaceOnUse">
<stop stop-color="#363882"/>
<stop offset="1" stop-color="#272966"/>
</linearGradient>
<clipPath id="clip0_686_2251">
<rect width="332.69" height="405.95" fill="white" transform="translate(857.655 53.3343)"/>
</clipPath>
</defs>
</svg>
