<svg width="758" height="44" viewBox="0 0 758 44" fill="none" xmlns="http://www.w3.org/2000/svg">
<path d="M27.3171 25.6556L30.7116 36.1056L19.2216 27.7543L27.3171 25.6556ZM37.8151 14.2478H23.6096L19.2232 0.730469L14.8212 14.2509L0.615723 14.2323L12.1196 22.5975L7.71771 36.104L19.2216 27.7543L26.3252 22.5975L37.8151 14.2478Z" fill="#29DA95"/>
<path d="M45.1362 17.1211V14.2873H62.0219V17.1211H55.2143V36.1055H51.9331V17.1211H45.1362ZM63.7983 36.1055V19.7418H66.8772V22.3413H67.0476C67.3459 21.4606 67.8715 20.7681 68.6243 20.2638C69.3843 19.7525 70.2436 19.4968 71.2024 19.4968C71.4013 19.4968 71.6357 19.5039 71.9056 19.5181C72.1826 19.5323 72.3992 19.5501 72.5554 19.5714V22.6183C72.4276 22.5827 72.2003 22.5437 71.8736 22.5011C71.5469 22.4513 71.2202 22.4265 70.8935 22.4265C70.1406 22.4265 69.4695 22.5863 68.88 22.9059C68.2976 23.2184 67.836 23.6552 67.4951 24.2163C67.1541 24.7702 66.9837 25.4023 66.9837 26.1126V36.1055H63.7983ZM85.6778 29.3192V19.7418H88.8738V36.1055H85.7417V33.2717H85.5712C85.1948 34.1452 84.5911 34.8732 83.7601 35.4556C82.9363 36.0309 81.91 36.3185 80.6813 36.3185C79.6302 36.3185 78.6998 36.0877 77.8901 35.6261C77.0876 35.1573 76.4555 34.4648 75.9938 33.5487C75.5393 32.6325 75.312 31.4996 75.312 30.1502V19.7418H78.4974V29.7667C78.4974 30.8817 78.8063 31.7695 79.4242 32.43C80.0421 33.0906 80.8447 33.4208 81.8319 33.4208C82.4285 33.4208 83.0215 33.2717 83.611 32.9734C84.2076 32.6751 84.7012 32.2241 85.0918 31.6204C85.4895 31.0167 85.6849 30.2496 85.6778 29.3192ZM105.416 23.7369L102.529 24.2482C102.408 23.8789 102.216 23.5273 101.954 23.1935C101.698 22.8597 101.35 22.5863 100.909 22.3732C100.469 22.1602 99.9187 22.0536 99.2582 22.0536C98.3562 22.0536 97.6034 22.256 96.9997 22.6609C96.396 23.0586 96.0941 23.5735 96.0941 24.2056C96.0941 24.7525 96.2965 25.1928 96.7014 25.5266C97.1062 25.8604 97.7596 26.1339 98.6616 26.3469L101.261 26.9435C102.767 27.2915 103.889 27.8278 104.628 28.5522C105.366 29.2766 105.735 30.2177 105.735 31.3754C105.735 32.3555 105.451 33.229 104.883 33.9961C104.322 34.756 103.537 35.3526 102.529 35.7859C101.527 36.2191 100.366 36.4357 99.0451 36.4357C97.2127 36.4357 95.7177 36.0451 94.56 35.2638C93.4024 34.4755 92.6921 33.3569 92.4294 31.908L95.5082 31.4393C95.7 32.2418 96.0941 32.8491 96.6907 33.261C97.2873 33.6658 98.065 33.8683 99.0238 33.8683C100.068 33.8683 100.902 33.6516 101.527 33.2184C102.152 32.7781 102.465 32.2418 102.465 31.6097C102.465 31.0984 102.273 30.6687 101.89 30.3207C101.513 29.9727 100.934 29.7099 100.153 29.5323L97.3832 28.9251C95.8562 28.5771 94.7269 28.0231 93.9954 27.2631C93.271 26.5032 92.9088 25.5408 92.9088 24.3761C92.9088 23.4102 93.1786 22.565 93.7184 21.8406C94.2582 21.1161 95.0039 20.5515 95.9556 20.1467C96.9073 19.7347 97.9975 19.5288 99.2262 19.5288C100.995 19.5288 102.387 19.9123 103.402 20.6793C104.418 21.4393 105.089 22.4585 105.416 23.7369ZM116.876 19.7418V22.2987H107.938V19.7418H116.876ZM110.335 15.8214H113.52V31.3008C113.52 31.9187 113.613 32.3839 113.797 32.6964C113.982 33.0018 114.22 33.2113 114.511 33.3249C114.81 33.4315 115.133 33.4847 115.481 33.4847C115.736 33.4847 115.96 33.467 116.152 33.4315C116.344 33.396 116.493 33.3675 116.599 33.3462L117.175 35.9776C116.99 36.0487 116.727 36.1197 116.386 36.1907C116.045 36.2688 115.619 36.3114 115.108 36.3185C114.27 36.3327 113.488 36.1836 112.764 35.8711C112.04 35.5586 111.454 35.0756 111.006 34.4222C110.559 33.7688 110.335 32.9485 110.335 31.9613V15.8214ZM120.4 42.2418V19.7418H123.511V22.3945H123.777C123.962 22.0536 124.228 21.6594 124.576 21.212C124.924 20.7646 125.407 20.3739 126.025 20.0401C126.643 19.6992 127.46 19.5288 128.475 19.5288C129.796 19.5288 130.975 19.8626 132.012 20.5302C133.049 21.1978 133.862 22.1602 134.452 23.4173C135.048 24.6744 135.347 26.1871 135.347 27.9556C135.347 29.7241 135.052 31.2404 134.462 32.5046C133.873 33.7617 133.063 34.7312 132.033 35.413C131.004 36.0877 129.828 36.4251 128.507 36.4251C127.513 36.4251 126.7 36.2582 126.067 35.9244C125.442 35.5906 124.952 35.1999 124.597 34.7525C124.242 34.305 123.969 33.9073 123.777 33.5593H123.585V42.2418H120.4ZM123.521 27.9237C123.521 29.0742 123.688 30.0827 124.022 30.9492C124.356 31.8157 124.839 32.494 125.471 32.984C126.103 33.467 126.877 33.7085 127.793 33.7085C128.745 33.7085 129.541 33.4563 130.18 32.9521C130.819 32.4407 131.302 31.7482 131.629 30.8746C131.962 30.0011 132.129 29.0174 132.129 27.9237C132.129 26.8441 131.966 25.8746 131.639 25.0153C131.32 24.1559 130.837 23.4776 130.19 22.9805C129.551 22.4833 128.752 22.2347 127.793 22.2347C126.87 22.2347 126.089 22.4727 125.45 22.9485C124.817 23.4244 124.338 24.0884 124.011 24.9407C123.685 25.793 123.521 26.7873 123.521 27.9237ZM138.916 36.1055V19.7418H142.101V36.1055H138.916ZM140.524 17.217C139.97 17.217 139.494 17.0323 139.097 16.663C138.706 16.2866 138.511 15.8391 138.511 15.3207C138.511 14.7951 138.706 14.3477 139.097 13.9783C139.494 13.6019 139.97 13.4137 140.524 13.4137C141.078 13.4137 141.55 13.6019 141.941 13.9783C142.339 14.3477 142.538 14.7951 142.538 15.3207C142.538 15.8391 142.339 16.2866 141.941 16.663C141.55 17.0323 141.078 17.217 140.524 17.217ZM149.572 14.2873V36.1055H146.386V14.2873H149.572ZM160.75 36.4357C159.216 36.4357 157.877 36.0842 156.733 35.381C155.59 34.6779 154.702 33.6942 154.07 32.43C153.438 31.1658 153.122 29.6886 153.122 27.9982C153.122 26.3008 153.438 24.8164 154.07 23.5451C154.702 22.2738 155.59 21.2866 156.733 20.5835C157.877 19.8803 159.216 19.5288 160.75 19.5288C162.284 19.5288 163.623 19.8803 164.766 20.5835C165.909 21.2866 166.797 22.2738 167.429 23.5451C168.061 24.8164 168.378 26.3008 168.378 27.9982C168.378 29.6886 168.061 31.1658 167.429 32.43C166.797 33.6942 165.909 34.6779 164.766 35.381C163.623 36.0842 162.284 36.4357 160.75 36.4357ZM160.76 33.7617C161.755 33.7617 162.579 33.4989 163.232 32.9734C163.885 32.4478 164.368 31.7482 164.681 30.8746C165 30.0011 165.16 29.0387 165.16 27.9876C165.16 26.9435 165 25.9847 164.681 25.1112C164.368 24.2305 163.885 23.5238 163.232 22.9911C162.579 22.4585 161.755 22.1921 160.76 22.1921C159.759 22.1921 158.928 22.4585 158.267 22.9911C157.614 23.5238 157.128 24.2305 156.808 25.1112C156.495 25.9847 156.339 26.9435 156.339 27.9876C156.339 29.0387 156.495 30.0011 156.808 30.8746C157.128 31.7482 157.614 32.4478 158.267 32.9734C158.928 33.4989 159.759 33.7617 160.76 33.7617ZM179.572 19.7418V22.2987H170.633V19.7418H179.572ZM173.03 15.8214H176.216V31.3008C176.216 31.9187 176.308 32.3839 176.493 32.6964C176.677 33.0018 176.915 33.2113 177.207 33.3249C177.505 33.4315 177.828 33.4847 178.176 33.4847C178.432 33.4847 178.655 33.467 178.847 33.4315C179.039 33.396 179.188 33.3675 179.295 33.3462L179.87 35.9776C179.685 36.0487 179.422 36.1197 179.082 36.1907C178.741 36.2688 178.314 36.3114 177.803 36.3185C176.965 36.3327 176.184 36.1836 175.459 35.8711C174.735 35.5586 174.149 35.0756 173.702 34.4222C173.254 33.7688 173.03 32.9485 173.03 31.9613V15.8214Z" fill="white"/>
<rect x="211.385" y="7.10547" width="36" height="36" fill="#29DA95"/>
<rect x="255.385" y="7.10547" width="36" height="36" fill="#29DA95"/>
<rect x="299.385" y="7.10547" width="36" height="36" fill="#29DA95"/>
<rect x="343.385" y="7.10547" width="36" height="36" fill="#29DA95"/>
<rect x="387.385" y="7.10547" width="36" height="36" fill="#C2C9C6"/>
<rect x="387.385" y="7.10547" width="17.9771" height="36" fill="#29DA95"/>
<path d="M234.612 29.7748L236.802 36.5168L229.389 31.1288L234.612 29.7748ZM241.385 22.4148H232.22L229.39 13.6938L226.55 22.4168L217.385 22.4048L224.807 27.8018L221.967 36.5158L229.389 31.1288L233.972 27.8018L241.385 22.4148Z" fill="white"/>
<path d="M278.612 29.7748L280.802 36.5168L273.389 31.1288L278.612 29.7748ZM285.385 22.4148H276.22L273.39 13.6938L270.55 22.4168L261.385 22.4048L268.807 27.8018L265.967 36.5158L273.389 31.1288L277.972 27.8018L285.385 22.4148Z" fill="white"/>
<path d="M322.612 29.7748L324.802 36.5168L317.389 31.1288L322.612 29.7748ZM329.385 22.4148H320.22L317.39 13.6938L314.55 22.4168L305.385 22.4048L312.807 27.8018L309.967 36.5158L317.389 31.1288L321.972 27.8018L329.385 22.4148Z" fill="white"/>
<path d="M366.612 29.7748L368.802 36.5168L361.389 31.1288L366.612 29.7748ZM373.385 22.4148H364.22L361.39 13.6938L358.55 22.4168L349.385 22.4048L356.807 27.8018L353.967 36.5158L361.389 31.1288L365.972 27.8018L373.385 22.4148Z" fill="white"/>
<path d="M410.612 29.7748L412.802 36.5168L405.389 31.1288L410.612 29.7748ZM417.385 22.4148H408.22L405.39 13.6938L402.55 22.4168L393.385 22.4048L400.807 27.8018L397.967 36.5158L405.389 31.1288L409.972 27.8018L417.385 22.4148Z" fill="white"/>
<path d="M454.494 23.4734V21.8327H465.949V23.4734H461.146V37.1055H459.297V23.4734H454.494ZM467.375 37.1055V25.6509H469.075V27.381H469.195C469.404 26.8143 469.781 26.3544 470.328 26.0014C470.875 25.6484 471.492 25.4719 472.178 25.4719C472.307 25.4719 472.469 25.4744 472.662 25.4794C472.856 25.4844 473.003 25.4918 473.102 25.5018V27.2915C473.043 27.2766 472.906 27.2543 472.692 27.2244C472.484 27.1896 472.262 27.1722 472.029 27.1722C471.472 27.1722 470.975 27.2891 470.537 27.5227C470.105 27.7514 469.762 28.0696 469.508 28.4773C469.259 28.88 469.135 29.3398 469.135 29.8569V37.1055H467.375ZM482.407 32.4222V25.6509H484.167V37.1055H482.407V35.1665H482.288C482.02 35.7482 481.602 36.2429 481.035 36.6506C480.469 37.0533 479.753 37.2546 478.888 37.2546C478.172 37.2546 477.535 37.098 476.978 36.7848C476.422 36.4666 475.984 35.9893 475.666 35.353C475.348 34.7116 475.189 33.9038 475.189 32.9293V25.6509H476.949V32.81C476.949 33.6452 477.182 34.3114 477.65 34.8086C478.122 35.3058 478.723 35.5543 479.454 35.5543C479.892 35.5543 480.337 35.4425 480.789 35.2188C481.247 34.995 481.629 34.652 481.938 34.1896C482.251 33.7273 482.407 33.1381 482.407 32.4222ZM495.504 28.2163L493.923 28.6637C493.824 28.4002 493.677 28.1442 493.484 27.8956C493.295 27.642 493.036 27.4332 492.708 27.2692C492.38 27.1051 491.96 27.0231 491.448 27.0231C490.747 27.0231 490.162 27.1847 489.695 27.5078C489.233 27.826 489.002 28.2312 489.002 28.7234C489.002 29.1609 489.161 29.5064 489.479 29.7599C489.797 30.0135 490.294 30.2248 490.97 30.3938L492.671 30.8114C493.695 31.06 494.458 31.4403 494.96 31.9524C495.462 32.4595 495.713 33.1133 495.713 33.9137C495.713 34.57 495.524 35.1566 495.147 35.6737C494.774 36.1907 494.252 36.5984 493.58 36.8967C492.909 37.195 492.129 37.3441 491.239 37.3441C490.071 37.3441 489.104 37.0906 488.338 36.5835C487.572 36.0763 487.088 35.3356 486.884 34.3612L488.554 33.9435C488.713 34.56 489.014 35.0224 489.457 35.3306C489.904 35.6388 490.488 35.793 491.209 35.793C492.029 35.793 492.681 35.619 493.163 35.271C493.65 34.918 493.894 34.4954 493.894 34.0032C493.894 33.6055 493.754 33.2724 493.476 33.0039C493.198 32.7305 492.77 32.5266 492.193 32.3924L490.284 31.945C489.235 31.6964 488.465 31.3111 487.973 30.7891C487.485 30.2621 487.242 29.6033 487.242 28.8129C487.242 28.1665 487.423 27.5948 487.786 27.0977C488.154 26.6005 488.654 26.2102 489.285 25.9268C489.921 25.6435 490.642 25.5018 491.448 25.5018C492.581 25.5018 493.471 25.7504 494.117 26.2475C494.769 26.7447 495.231 27.4009 495.504 28.2163ZM503.344 25.6509V27.1424H497.408V25.6509H503.344ZM499.138 22.9066H500.898V33.8242C500.898 34.3214 500.97 34.6942 501.114 34.9428C501.263 35.1864 501.452 35.3505 501.681 35.435C501.915 35.5146 502.161 35.5543 502.419 35.5543C502.613 35.5543 502.772 35.5444 502.897 35.5245C503.021 35.4996 503.12 35.4798 503.195 35.4648L503.553 37.0458C503.434 37.0906 503.267 37.1353 503.053 37.18C502.839 37.2298 502.568 37.2546 502.24 37.2546C501.743 37.2546 501.256 37.1477 500.779 36.9339C500.306 36.7202 499.914 36.3945 499.6 35.957C499.292 35.5195 499.138 34.9677 499.138 34.3015V22.9066ZM520.489 25.6509C520.399 24.8952 520.036 24.3086 519.4 23.891C518.763 23.4734 517.983 23.2646 517.058 23.2646C516.382 23.2646 515.79 23.3739 515.283 23.5927C514.781 23.8114 514.388 24.1122 514.105 24.495C513.827 24.8778 513.687 25.3129 513.687 25.8001C513.687 26.2077 513.784 26.5582 513.978 26.8516C514.177 27.1399 514.431 27.381 514.739 27.5749C515.047 27.7638 515.37 27.9205 515.708 28.0447C516.046 28.1641 516.357 28.261 516.641 28.3356L518.192 28.7532C518.589 28.8576 519.032 29.0018 519.519 29.1857C520.011 29.3697 520.481 29.6207 520.929 29.9389C521.381 30.2521 521.754 30.6548 522.047 31.147C522.34 31.6392 522.487 32.2433 522.487 32.9592C522.487 33.7844 522.271 34.5302 521.838 35.1964C521.411 35.8626 520.784 36.392 519.959 36.7848C519.139 37.1776 518.142 37.3739 516.969 37.3739C515.875 37.3739 514.928 37.1974 514.127 36.8445C513.332 36.4915 512.706 35.9993 512.248 35.3679C511.796 34.7365 511.54 34.0032 511.48 33.168H513.389C513.439 33.7447 513.633 34.2219 513.971 34.5998C514.314 34.9727 514.746 35.2511 515.268 35.435C515.795 35.614 516.362 35.7035 516.969 35.7035C517.675 35.7035 518.309 35.5891 518.87 35.3604C519.432 35.1268 519.877 34.8036 520.205 34.391C520.533 33.9734 520.697 33.4862 520.697 32.9293C520.697 32.4222 520.556 32.0096 520.272 31.6914C519.989 31.3732 519.616 31.1147 519.154 30.9158C518.691 30.717 518.192 30.543 517.655 30.3938L515.776 29.8569C514.582 29.5138 513.638 29.0241 512.942 28.3878C512.246 27.7514 511.898 26.9187 511.898 25.8896C511.898 25.0344 512.129 24.2887 512.591 23.6523C513.059 23.011 513.685 22.5138 514.47 22.1609C515.261 21.8029 516.143 21.6239 517.118 21.6239C518.102 21.6239 518.977 21.8004 519.743 22.1534C520.508 22.5014 521.115 22.9787 521.562 23.5852C522.015 24.1918 522.253 24.8803 522.278 25.6509H520.489ZM529.943 37.3441C528.869 37.3441 527.944 37.0906 527.169 36.5835C526.393 36.0763 525.796 35.3778 525.379 34.4879C524.961 33.598 524.752 32.5813 524.752 31.4379C524.752 30.2745 524.966 29.2479 525.394 28.358C525.826 27.4631 526.428 26.7646 527.198 26.2624C527.974 25.7553 528.879 25.5018 529.913 25.5018C530.718 25.5018 531.444 25.6509 532.09 25.9492C532.737 26.2475 533.266 26.6651 533.679 27.2021C534.091 27.739 534.348 28.3654 534.447 29.0813H532.687C532.553 28.5593 532.254 28.0969 531.792 27.6942C531.335 27.2866 530.718 27.0827 529.943 27.0827C529.257 27.0827 528.655 27.2617 528.138 27.6197C527.626 27.9727 527.226 28.4723 526.937 29.1186C526.654 29.7599 526.512 30.5131 526.512 31.3782C526.512 32.2631 526.651 33.0337 526.93 33.69C527.213 34.3462 527.611 34.8558 528.123 35.2188C528.64 35.5817 529.247 35.7631 529.943 35.7631C530.4 35.7631 530.815 35.6836 531.188 35.5245C531.561 35.3654 531.877 35.1367 532.135 34.8384C532.394 34.5401 532.578 34.1822 532.687 33.7646H534.447C534.348 34.4407 534.101 35.0497 533.709 35.5916C533.321 36.1286 532.806 36.5561 532.165 36.8743C531.529 37.1875 530.788 37.3441 529.943 37.3441ZM541.673 37.3441C540.639 37.3441 539.732 37.098 538.951 36.6058C538.176 36.1136 537.569 35.4251 537.132 34.5401C536.699 33.6552 536.483 32.6211 536.483 31.4379C536.483 30.2447 536.699 29.2031 537.132 28.3132C537.569 27.4233 538.176 26.7322 538.951 26.2401C539.732 25.7479 540.639 25.5018 541.673 25.5018C542.707 25.5018 543.612 25.7479 544.388 26.2401C545.168 26.7322 545.775 27.4233 546.207 28.3132C546.645 29.2031 546.863 30.2447 546.863 31.4379C546.863 32.6211 546.645 33.6552 546.207 34.5401C545.775 35.4251 545.168 36.1136 544.388 36.6058C543.612 37.098 542.707 37.3441 541.673 37.3441ZM541.673 35.7631C542.459 35.7631 543.105 35.5618 543.612 35.1591C544.119 34.7564 544.495 34.2269 544.738 33.5707C544.982 32.9144 545.104 32.2035 545.104 31.4379C545.104 30.6722 544.982 29.9588 544.738 29.2976C544.495 28.6364 544.119 28.1019 543.612 27.6942C543.105 27.2866 542.459 27.0827 541.673 27.0827C540.888 27.0827 540.241 27.2866 539.734 27.6942C539.227 28.1019 538.852 28.6364 538.608 29.2976C538.365 29.9588 538.243 30.6722 538.243 31.4379C538.243 32.2035 538.365 32.9144 538.608 33.5707C538.852 34.2269 539.227 34.7564 539.734 35.1591C540.241 35.5618 540.888 35.7631 541.673 35.7631ZM549.55 37.1055V25.6509H551.25V27.381H551.37C551.578 26.8143 551.956 26.3544 552.503 26.0014C553.05 25.6484 553.666 25.4719 554.353 25.4719C554.482 25.4719 554.643 25.4744 554.837 25.4794C555.031 25.4844 555.178 25.4918 555.277 25.5018V27.2915C555.218 27.2766 555.081 27.2543 554.867 27.2244C554.658 27.1896 554.437 27.1722 554.203 27.1722C553.647 27.1722 553.149 27.2891 552.712 27.5227C552.279 27.7514 551.936 28.0696 551.683 28.4773C551.434 28.88 551.31 29.3398 551.31 29.8569V37.1055H549.55ZM561.817 37.3441C560.714 37.3441 559.762 37.1005 558.961 36.6133C558.166 36.1211 557.552 35.435 557.119 34.555C556.692 33.6701 556.478 32.641 556.478 31.4677C556.478 30.2944 556.692 29.2603 557.119 28.3654C557.552 27.4656 558.153 26.7646 558.924 26.2624C559.7 25.7553 560.604 25.5018 561.638 25.5018C562.235 25.5018 562.824 25.6012 563.406 25.8001C563.988 25.9989 564.517 26.3221 564.994 26.7695C565.472 27.212 565.852 27.7987 566.135 28.5295C566.419 29.2603 566.56 30.1602 566.56 31.229V31.9748H557.731V30.4535H564.771C564.771 29.8072 564.641 29.2305 564.383 28.7234C564.129 28.2163 563.766 27.8161 563.294 27.5227C562.827 27.2294 562.275 27.0827 561.638 27.0827C560.937 27.0827 560.331 27.2567 559.819 27.6048C559.312 27.9478 558.921 28.3952 558.648 28.9471C558.375 29.4989 558.238 30.0906 558.238 30.7219V31.7362C558.238 32.6012 558.387 33.3345 558.685 33.9361C558.989 34.5327 559.409 34.9876 559.946 35.3008C560.483 35.609 561.106 35.7631 561.817 35.7631C562.28 35.7631 562.697 35.6985 563.07 35.5692C563.448 35.435 563.774 35.2362 564.047 34.9727C564.321 34.7042 564.532 34.3711 564.681 33.9734L566.381 34.4506C566.202 35.0273 565.902 35.5344 565.479 35.9719C565.056 36.4045 564.534 36.7425 563.913 36.9862C563.291 37.2248 562.593 37.3441 561.817 37.3441ZM620.061 16.9109V42.0273H618.569V16.9109H620.061ZM636.417 37.3441C635.246 37.3441 634.201 37.1424 633.28 36.739C632.365 36.3356 631.641 35.7759 631.107 35.06C630.579 34.3384 630.294 33.5032 630.255 32.5543H632.931C632.965 33.0714 633.138 33.5202 633.451 33.9009C633.769 34.2759 634.184 34.5657 634.695 34.7702C635.206 34.9748 635.775 35.0771 636.4 35.0771C637.087 35.0771 637.695 34.9577 638.223 34.7191C638.757 34.4805 639.175 34.1481 639.476 33.7219C639.777 33.2901 639.928 32.793 639.928 32.2305C639.928 31.6452 639.777 31.131 639.476 30.6879C639.181 30.239 638.746 29.8867 638.172 29.631C637.604 29.3754 636.917 29.2475 636.11 29.2475H634.635V27.0998H636.11C636.757 27.0998 637.326 26.9833 637.814 26.7504C638.309 26.5174 638.695 26.1935 638.973 25.7788C639.252 25.3583 639.391 24.8668 639.391 24.3043C639.391 23.7646 639.269 23.2958 639.025 22.8981C638.786 22.4947 638.445 22.1793 638.002 21.9521C637.564 21.7248 637.047 21.6111 636.451 21.6111C635.882 21.6111 635.351 21.7163 634.857 21.9265C634.368 22.131 633.971 22.4265 633.664 22.8129C633.357 23.1935 633.192 23.6509 633.169 24.185H630.621C630.65 23.2418 630.928 22.4123 631.456 21.6964C631.99 20.9805 632.695 20.4208 633.57 20.0174C634.445 19.614 635.417 19.4123 636.485 19.4123C637.604 19.4123 638.57 19.631 639.382 20.0685C640.201 20.5004 640.831 21.0771 641.275 21.7986C641.723 22.5202 641.945 23.31 641.939 24.168C641.945 25.1452 641.672 25.9748 641.121 26.6566C640.576 27.3384 639.848 27.7958 638.939 28.0288V28.1651C640.098 28.3413 640.996 28.8015 641.632 29.5458C642.275 30.2901 642.593 31.2134 642.587 32.3157C642.593 33.2759 642.326 34.1367 641.786 34.8981C641.252 35.6594 640.522 36.2589 639.596 36.6964C638.669 37.1282 637.61 37.3441 636.417 37.3441ZM651.885 37.3952C650.539 37.3896 649.388 37.0344 648.434 36.3299C647.479 35.6254 646.749 34.5998 646.243 33.2532C645.738 31.9066 645.485 30.2844 645.485 28.3867C645.485 26.4947 645.738 24.8782 646.243 23.5373C646.755 22.1964 647.488 21.1737 648.442 20.4691C649.402 19.7646 650.55 19.4123 651.885 19.4123C653.221 19.4123 654.365 19.7674 655.32 20.4776C656.275 21.1822 657.005 22.2049 657.51 23.5458C658.022 24.881 658.277 26.4947 658.277 28.3867C658.277 30.2901 658.025 31.9151 657.519 33.2617C657.013 34.6026 656.283 35.6282 655.329 36.3384C654.374 37.043 653.226 37.3952 651.885 37.3952ZM651.885 35.1197C653.067 35.1197 653.99 34.543 654.655 33.3896C655.326 32.2362 655.661 30.5685 655.661 28.3867C655.661 26.9379 655.507 25.7134 655.201 24.7134C654.9 23.7077 654.465 22.9464 653.897 22.4293C653.334 21.9066 652.664 21.6452 651.885 21.6452C650.709 21.6452 649.786 22.2248 649.115 23.3839C648.445 24.543 648.107 26.2106 648.101 28.3867C648.101 29.8413 648.252 31.0714 648.553 32.0771C648.86 33.0771 649.294 33.8356 649.857 34.3526C650.419 34.864 651.096 35.1197 651.885 35.1197ZM667.378 37.3952C666.031 37.3896 664.88 37.0344 663.926 36.3299C662.971 35.6254 662.241 34.5998 661.735 33.2532C661.23 31.9066 660.977 30.2844 660.977 28.3867C660.977 26.4947 661.23 24.8782 661.735 23.5373C662.247 22.1964 662.98 21.1737 663.934 20.4691C664.895 19.7646 666.042 19.4123 667.378 19.4123C668.713 19.4123 669.858 19.7674 670.812 20.4776C671.767 21.1822 672.497 22.2049 673.003 23.5458C673.514 24.881 673.77 26.4947 673.77 28.3867C673.77 30.2901 673.517 31.9151 673.011 33.2617C672.505 34.6026 671.775 35.6282 670.821 36.3384C669.866 37.043 668.718 37.3952 667.378 37.3952ZM667.378 35.1197C668.559 35.1197 669.483 34.543 670.147 33.3896C670.818 32.2362 671.153 30.5685 671.153 28.3867C671.153 26.9379 671 25.7134 670.693 24.7134C670.392 23.7077 669.957 22.9464 669.389 22.4293C668.826 21.9066 668.156 21.6452 667.378 21.6452C666.201 21.6452 665.278 22.2248 664.608 23.3839C663.937 24.543 663.599 26.2106 663.593 28.3867C663.593 29.8413 663.744 31.0714 664.045 32.0771C664.352 33.0771 664.787 33.8356 665.349 34.3526C665.912 34.864 666.588 35.1197 667.378 35.1197ZM682.631 37.1055V25.6509H684.331V27.381H684.451C684.659 26.8143 685.037 26.3544 685.584 26.0014C686.131 25.6484 686.748 25.4719 687.434 25.4719C687.563 25.4719 687.724 25.4744 687.918 25.4794C688.112 25.4844 688.259 25.4918 688.358 25.5018V27.2915C688.299 27.2766 688.162 27.2543 687.948 27.2244C687.739 27.1896 687.518 27.1722 687.284 27.1722C686.728 27.1722 686.23 27.2891 685.793 27.5227C685.36 27.7514 685.017 28.0696 684.764 28.4773C684.515 28.88 684.391 29.3398 684.391 29.8569V37.1055H682.631ZM694.898 37.3441C693.795 37.3441 692.843 37.1005 692.042 36.6133C691.247 36.1211 690.633 35.435 690.2 34.555C689.773 33.6701 689.559 32.641 689.559 31.4677C689.559 30.2944 689.773 29.2603 690.2 28.3654C690.633 27.4656 691.234 26.7646 692.005 26.2624C692.781 25.7553 693.685 25.5018 694.719 25.5018C695.316 25.5018 695.905 25.6012 696.487 25.8001C697.069 25.9989 697.598 26.3221 698.075 26.7695C698.553 27.212 698.933 27.7987 699.216 28.5295C699.5 29.2603 699.641 30.1602 699.641 31.229V31.9748H690.812V30.4535H697.852C697.852 29.8072 697.722 29.2305 697.464 28.7234C697.21 28.2163 696.847 27.8161 696.375 27.5227C695.908 27.2294 695.356 27.0827 694.719 27.0827C694.018 27.0827 693.412 27.2567 692.9 27.6048C692.393 27.9478 692.003 28.3952 691.729 28.9471C691.456 29.4989 691.319 30.0906 691.319 30.7219V31.7362C691.319 32.6012 691.468 33.3345 691.766 33.9361C692.07 34.5327 692.49 34.9876 693.027 35.3008C693.564 35.609 694.188 35.7631 694.898 35.7631C695.361 35.7631 695.778 35.6985 696.151 35.5692C696.529 35.435 696.855 35.2362 697.128 34.9727C697.402 34.7042 697.613 34.3711 697.762 33.9734L699.462 34.4506C699.283 35.0273 698.983 35.5344 698.56 35.9719C698.137 36.4045 697.615 36.7425 696.994 36.9862C696.373 37.2248 695.674 37.3441 694.898 37.3441ZM711.336 25.6509L707.101 37.1055H705.311L701.075 25.6509H702.984L706.146 34.7788H706.265L709.427 25.6509H711.336ZM713.659 37.1055V25.6509H715.419V37.1055H713.659ZM714.554 23.7418C714.211 23.7418 713.915 23.625 713.667 23.3913C713.423 23.1577 713.301 22.8768 713.301 22.5487C713.301 22.2205 713.423 21.9396 713.667 21.706C713.915 21.4723 714.211 21.3555 714.554 21.3555C714.897 21.3555 715.191 21.4723 715.434 21.706C715.683 21.9396 715.807 22.2205 715.807 22.5487C715.807 22.8768 715.683 23.1577 715.434 23.3913C715.191 23.625 714.897 23.7418 714.554 23.7418ZM723.445 37.3441C722.342 37.3441 721.39 37.1005 720.589 36.6133C719.794 36.1211 719.18 35.435 718.747 34.555C718.32 33.6701 718.106 32.641 718.106 31.4677C718.106 30.2944 718.32 29.2603 718.747 28.3654C719.18 27.4656 719.781 26.7646 720.552 26.2624C721.327 25.7553 722.232 25.5018 723.266 25.5018C723.863 25.5018 724.452 25.6012 725.034 25.8001C725.615 25.9989 726.145 26.3221 726.622 26.7695C727.099 27.212 727.48 27.7987 727.763 28.5295C728.047 29.2603 728.188 30.1602 728.188 31.229V31.9748H719.359V30.4535H726.398C726.398 29.8072 726.269 29.2305 726.011 28.7234C725.757 28.2163 725.394 27.8161 724.922 27.5227C724.455 27.2294 723.903 27.0827 723.266 27.0827C722.565 27.0827 721.959 27.2567 721.447 27.6048C720.94 27.9478 720.549 28.3952 720.276 28.9471C720.003 29.4989 719.866 30.0906 719.866 30.7219V31.7362C719.866 32.6012 720.015 33.3345 720.313 33.9361C720.616 34.5327 721.037 34.9876 721.574 35.3008C722.11 35.609 722.734 35.7631 723.445 35.7631C723.908 35.7631 724.325 35.6985 724.698 35.5692C725.076 35.435 725.402 35.2362 725.675 34.9727C725.949 34.7042 726.16 34.3711 726.309 33.9734L728.009 34.4506C727.83 35.0273 727.529 35.5344 727.107 35.9719C726.684 36.4045 726.162 36.7425 725.541 36.9862C724.919 37.2248 724.221 37.3441 723.445 37.3441ZM733.461 37.1055L729.971 25.6509H731.82L734.296 34.4208H734.415L736.861 25.6509H738.74L741.157 34.391H741.276L743.752 25.6509H745.601L742.111 37.1055H740.381L737.875 28.3058H737.696L735.191 37.1055H733.461ZM756.042 28.2163L754.461 28.6637C754.361 28.4002 754.215 28.1442 754.021 27.8956C753.832 27.642 753.573 27.4332 753.245 27.2692C752.917 27.1051 752.497 27.0231 751.985 27.0231C751.284 27.0231 750.7 27.1847 750.232 27.5078C749.77 27.826 749.539 28.2312 749.539 28.7234C749.539 29.1609 749.698 29.5064 750.016 29.7599C750.334 30.0135 750.831 30.2248 751.507 30.3938L753.208 30.8114C754.232 31.06 754.995 31.4403 755.497 31.9524C755.999 32.4595 756.25 33.1133 756.25 33.9137C756.25 34.57 756.061 35.1566 755.684 35.6737C755.311 36.1907 754.789 36.5984 754.118 36.8967C753.446 37.195 752.666 37.3441 751.776 37.3441C750.608 37.3441 749.641 37.0906 748.875 36.5835C748.109 36.0763 747.625 35.3356 747.421 34.3612L749.091 33.9435C749.25 34.56 749.551 35.0224 749.994 35.3306C750.441 35.6388 751.025 35.793 751.746 35.793C752.566 35.793 753.218 35.619 753.7 35.271C754.187 34.918 754.431 34.4954 754.431 34.0032C754.431 33.6055 754.292 33.2724 754.013 33.0039C753.735 32.7305 753.307 32.5266 752.73 32.3924L750.821 31.945C749.772 31.6964 749.002 31.3111 748.51 30.7891C748.022 30.2621 747.779 29.6033 747.779 28.8129C747.779 28.1665 747.96 27.5948 748.323 27.0977C748.691 26.6005 749.191 26.2102 749.822 25.9268C750.458 25.6435 751.179 25.5018 751.985 25.5018C753.118 25.5018 754.008 25.7504 754.654 26.2475C755.306 26.7447 755.768 27.4009 756.042 28.2163Z" fill="white"/>
<path d="M574.845 33.6964V31.5657L582.388 19.6509H584.067V22.7873H583.002L577.607 31.3271V31.4634H587.945V33.6964H574.845ZM583.121 37.1055V33.0487L583.138 32.0771V19.6509H585.635V37.1055H583.121ZM591.972 37.2674C591.506 37.2674 591.105 37.1026 590.77 36.7731C590.435 36.4379 590.267 36.0344 590.267 35.5629C590.267 35.0969 590.435 34.6992 590.77 34.3697C591.105 34.0344 591.506 33.8668 591.972 33.8668C592.438 33.8668 592.838 34.0344 593.174 34.3697C593.509 34.6992 593.676 35.0969 593.676 35.5629C593.676 35.8754 593.597 36.1623 593.438 36.4237C593.284 36.6793 593.08 36.8839 592.824 37.0373C592.568 37.1907 592.284 37.2674 591.972 37.2674ZM602.536 37.3441C601.468 37.3441 600.507 37.1396 599.655 36.7305C598.809 36.3157 598.132 35.7475 597.627 35.0259C597.121 34.3043 596.851 33.4805 596.817 32.5543H599.374C599.436 33.3043 599.769 33.9208 600.371 34.4038C600.973 34.8867 601.695 35.1282 602.536 35.1282C603.206 35.1282 603.8 34.9748 604.317 34.668C604.84 34.3555 605.249 33.9265 605.544 33.381C605.845 32.8356 605.996 32.2134 605.996 31.5146C605.996 30.8043 605.843 30.1708 605.536 29.614C605.229 29.0572 604.806 28.6197 604.266 28.3015C603.732 27.9833 603.118 27.8214 602.425 27.8157C601.897 27.8157 601.365 27.9066 600.831 28.0884C600.297 28.2702 599.865 28.5089 599.536 28.8043L597.124 28.4464L598.104 19.6509H607.701V21.9094H600.294L599.74 26.793H599.843C600.184 26.4634 600.635 26.1879 601.198 25.9663C601.766 25.7447 602.374 25.6339 603.022 25.6339C604.084 25.6339 605.03 25.8867 605.86 26.3924C606.695 26.8981 607.351 27.5884 607.828 28.4634C608.311 29.3327 608.55 30.3327 608.544 31.4634C608.55 32.5941 608.294 33.6026 607.777 34.489C607.266 35.3754 606.556 36.0742 605.647 36.5856C604.743 37.0913 603.706 37.3441 602.536 37.3441Z" fill="#29DA95"/>
</svg>
