<svg id="svg" version="1.1" xmlns="http://www.w3.org/2000/svg" viewBox="0 0 1440 1024" style="display: block;"><path d="M0 0 C475.2 0 950.4 0 1440 0 C1440 337.92 1440 675.84 1440 1024 C964.8 1024 489.6 1024 0 1024 C0 686.08 0 348.16 0 0 Z " transform="translate(0,0)" style="fill: #35327D;"/><path d="M0 0 C2.93319718 0.86094871 4.10485543 1.79007219 6.20800781 3.97045898 C6.84609375 4.62143555 7.48417969 5.27241211 8.14160156 5.94311523 C8.79257812 6.62760742 9.44355469 7.31209961 10.11425781 8.01733398 C10.76523437 8.68635742 11.41621094 9.35538086 12.08691406 10.04467773 C13.3605429 11.3543284 14.63066092 12.66740391 15.89697266 13.98413086 C18.96234386 17.1671663 22.07648295 20.27140328 25.32519531 23.26733398 C26.20433594 24.09233398 27.08347656 24.91733398 27.98925781 25.76733398 C28.88386719 26.59233398 29.77847656 27.41733398 30.70019531 28.26733398 C32.61425781 30.76733398 32.61425781 30.76733398 32.40332031 33.57983398 C32.14292969 34.30170898 31.88253906 35.02358398 31.61425781 35.76733398 C30.62425781 36.09733398 29.63425781 36.42733398 28.61425781 36.76733398 C28.61425781 37.42733398 28.61425781 38.08733398 28.61425781 38.76733398 C26.99451222 40.47963646 25.31836321 42.1389666 23.61425781 43.76733398 C21.05819842 46.30640959 18.52225218 48.86182252 16.00878906 51.44311523 C15.15671875 52.31323242 14.30464844 53.18334961 13.42675781 54.07983398 C12.56695313 54.9628418 11.70714844 55.84584961 10.82128906 56.75561523 C8.61425781 58.76733398 8.61425781 58.76733398 6.61425781 58.76733398 C6.61425781 59.42733398 6.61425781 60.08733398 6.61425781 60.76733398 C5.95425781 60.76733398 5.29425781 60.76733398 4.61425781 60.76733398 C4.28425781 61.75733398 3.95425781 62.74733398 3.61425781 63.76733398 C2.95425781 63.76733398 2.29425781 63.76733398 1.61425781 63.76733398 C1.61425781 64.42733398 1.61425781 65.08733398 1.61425781 65.76733398 C-0.26074219 67.89233398 -0.26074219 67.89233398 -2.38574219 69.76733398 C-3.04574219 69.76733398 -3.70574219 69.76733398 -4.38574219 69.76733398 C-4.71574219 70.75733398 -5.04574219 71.74733398 -5.38574219 72.76733398 C-6.04574219 72.76733398 -6.70574219 72.76733398 -7.38574219 72.76733398 C-7.38574219 73.75733398 -7.38574219 74.74733398 -7.38574219 75.76733398 C-11.01187418 75.19774246 -12.6409196 73.84358864 -15.13574219 71.20483398 C-15.74933594 70.56416992 -16.36292969 69.92350586 -16.99511719 69.26342773 C-17.45402344 68.7697168 -17.91292969 68.27600586 -18.38574219 67.76733398 C-15.29813119 61.27222437 -10.65175899 57.02561093 -5.24902344 52.44702148 C-3.00927751 50.42796331 -1.24792657 48.1308757 0.61425781 45.76733398 C1.27425781 45.76733398 1.93425781 45.76733398 2.61425781 45.76733398 C2.94425781 44.77733398 3.27425781 43.78733398 3.61425781 42.76733398 C5.17285156 41.16186523 5.17285156 41.16186523 7.05175781 39.57983398 C7.66921875 39.0500293 8.28667969 38.52022461 8.92285156 37.97436523 C10.61425781 36.76733398 10.61425781 36.76733398 12.61425781 36.76733398 C12.61425781 36.10733398 12.61425781 35.44733398 12.61425781 34.76733398 C13.60425781 34.27233398 13.60425781 34.27233398 14.61425781 33.76733398 C11.21438302 29.67685962 7.78722643 25.79255413 3.73925781 22.32983398 C0.60822691 19.64785073 -2.45708843 16.91795197 -5.44824219 14.07983398 C-6.22296875 13.3540918 -6.99769531 12.62834961 -7.79589844 11.88061523 C-9.38574219 9.76733398 -9.38574219 9.76733398 -9.30371094 7.70483398 C-8.30151217 5.58955487 -7.25876451 4.14060202 -5.63574219 2.45483398 C-5.14589844 1.92245117 -4.65605469 1.39006836 -4.15136719 0.84155273 C-2.38574219 -0.23266602 -2.38574219 -0.23266602 0 0 Z " transform="translate(699.3857421875,475.232666015625)" style="fill: #64649E;"/><path d="M0 0 C2.93319718 0.86094871 4.10485543 1.79007219 6.20800781 3.97045898 C6.84609375 4.62143555 7.48417969 5.27241211 8.14160156 5.94311523 C8.79257812 6.62760742 9.44355469 7.31209961 10.11425781 8.01733398 C10.76523437 8.68635742 11.41621094 9.35538086 12.08691406 10.04467773 C13.36062581 11.35441366 14.6306669 12.66773087 15.89672852 13.98486328 C18.96970536 17.17403229 22.11720945 20.28334675 25.29003906 23.37280273 C26.59521484 24.6509082 26.59521484 24.6509082 27.92675781 25.95483398 C28.80976562 26.81463867 29.69277344 27.67444336 30.60253906 28.56030273 C32.61425781 30.76733398 32.61425781 30.76733398 32.61425781 32.76733398 C29.56964841 32.95724526 26.53694415 33.09534965 23.48925781 33.20483398 C22.63332031 33.26348633 21.77738281 33.32213867 20.89550781 33.38256836 C14.5868786 33.55241607 14.5868786 33.55241607 11.79223633 31.29663086 C10.28876933 29.51425505 8.9495122 27.67738613 7.61425781 25.76733398 C6.37762164 24.60484814 5.11191295 23.47128527 3.80175781 22.39233398 C0.65170752 19.68793034 -2.4359467 16.93777272 -5.44824219 14.07983398 C-6.22296875 13.3540918 -6.99769531 12.62834961 -7.79589844 11.88061523 C-9.38574219 9.76733398 -9.38574219 9.76733398 -9.30371094 7.70483398 C-8.30151217 5.58955487 -7.25876451 4.14060202 -5.63574219 2.45483398 C-4.90097656 1.65625977 -4.90097656 1.65625977 -4.15136719 0.84155273 C-2.38574219 -0.23266602 -2.38574219 -0.23266602 0 0 Z " transform="translate(699.3857421875,475.232666015625)" style="fill: #EFF2F9;"/><path d="M0 0 C3.66024944 1.48152954 6.30859828 3.86252237 8.625 7.0625 C8.625 10.0625 8.625 10.0625 6.9453125 11.88671875 C6.22085938 12.50160156 5.49640625 13.11648438 4.75 13.75 C4.03070312 14.37261719 3.31140625 14.99523437 2.5703125 15.63671875 C0.625 17.0625 0.625 17.0625 -1.375 17.0625 C-1.601875 17.619375 -1.82875 18.17625 -2.0625 18.75 C-3.78122159 21.77822375 -5.70288397 23.83573664 -8.375 26.0625 C-11.6185771 25.75173812 -13.397719 24.49432629 -15.6875 22.25 C-16.21988281 21.74855469 -16.75226562 21.24710937 -17.30078125 20.73046875 C-18.375 19.0625 -18.375 19.0625 -18.25 17.078125 C-17.20767343 14.6770513 -15.97831047 13.40132962 -14.0625 11.625 C-11.91178687 9.57523871 -10.04518002 7.64786916 -8.1875 5.3125 C-3.99262509 0.10506908 -3.99262509 0.10506908 0 0 Z " transform="translate(750.375,473.9375)" style="fill: #63629E;"/><path d="M0 0 C1.65 0 3.3 0 5 0 C5.2475 0.61875 5.495 1.2375 5.75 1.875 C6.80484717 4.11387664 6.80484717 4.11387664 8.84375 4.90625 C11.31104442 6.15777616 12.83627231 7.6376674 14.75 9.625 C15.36359375 10.25664063 15.9771875 10.88828125 16.609375 11.5390625 C17.06828125 12.02117188 17.5271875 12.50328125 18 13 C16.22886882 16.78488307 14.23562812 19.29110204 11 22 C8.5859375 22.375 8.5859375 22.375 6 22 C3.90234375 20.390625 3.90234375 20.390625 1.9375 18.25 C1.28652344 17.55390625 0.63554688 16.8578125 -0.03515625 16.140625 C-0.68355469 15.43421875 -1.33195313 14.7278125 -2 14 C-2.74636719 13.3090625 -3.49273438 12.618125 -4.26171875 11.90625 C-4.83535156 11.2771875 -5.40898438 10.648125 -6 10 C-5.75 7.25 -5.75 7.25 -5 5 C-4.01 4.67 -3.02 4.34 -2 4 C-2 3.34 -2 2.68 -2 2 C-1.34 2 -0.68 2 0 2 C0 1.34 0 0.68 0 0 Z " transform="translate(738,517)" style="fill: #E9EBF5;"/><path d="M0 0 C1.65 0 3.3 0 5 0 C5.66 2.31 6.32 4.62 7 7 C4 9 4 9 1.3125 8.625 C0.549375 8.41875 -0.21375 8.2125 -1 8 C-1.33 8.66 -1.66 9.32 -2 10 C-2.66 9.67 -3.32 9.34 -4 9 C-4.625 6.9375 -4.625 6.9375 -5 5 C-4.01 4.67 -3.02 4.34 -2 4 C-2 3.34 -2 2.68 -2 2 C-1.34 2 -0.68 2 0 2 C0 1.34 0 0.68 0 0 Z " transform="translate(738,517)" style="fill: #F1F3FA;"/><path d="M0 0 C0.74362793 0.01047363 1.48725586 0.02094727 2.25341797 0.03173828 C3.46191406 0.04140625 3.46191406 0.04140625 4.69482422 0.05126953 C5.95746094 0.07640625 5.95746094 0.07640625 7.24560547 0.10205078 C8.51984375 0.11558594 8.51984375 0.11558594 9.81982422 0.12939453 C11.9202043 0.15299431 14.02043991 0.18886595 16.12060547 0.22705078 C16.12060547 0.55705078 16.12060547 0.88705078 16.12060547 1.22705078 C13.15060547 1.22705078 10.18060547 1.22705078 7.12060547 1.22705078 C7.45060547 2.21705078 7.78060547 3.20705078 8.12060547 4.22705078 C6.47060547 4.22705078 4.82060547 4.22705078 3.12060547 4.22705078 C2.79060547 4.88705078 2.46060547 5.54705078 2.12060547 6.22705078 C-0.18939453 6.22705078 -2.49939453 6.22705078 -4.87939453 6.22705078 C-3.72396322 0.44989423 -3.72396322 0.44989423 0 0 Z " transform="translate(715.87939453125,507.77294921875)" style="fill: #7775A7;"/><path d="M0 0 C-1.31307372 2.89852365 -2.72684638 4.98277217 -4.96875 7.234375 C-5.82533203 8.09482422 -5.82533203 8.09482422 -6.69921875 8.97265625 C-7.29347656 9.55917969 -7.88773438 10.14570312 -8.5 10.75 C-9.39138672 11.65298828 -9.39138672 11.65298828 -10.30078125 12.57421875 C-10.87183594 13.14269531 -11.44289063 13.71117187 -12.03125 14.296875 C-12.55267578 14.81604492 -13.07410156 15.33521484 -13.61132812 15.87011719 C-15 17 -15 17 -17 17 C-17 16.34 -17 15.68 -17 15 C-15.71484375 13.7734375 -15.71484375 13.7734375 -13.9375 12.375 C-9.80855061 8.96924745 -6.44517433 5.07776284 -3 1 C-2 0 -2 0 0 0 Z " transform="translate(702,521)" style="fill: #5B5A97;"/><path d="M0 0 C0 3 0 3 -2.1875 5.6875 C-5 8 -5 8 -7.8125 8.3125 C-8.534375 8.209375 -9.25625 8.10625 -10 8 C-9.46375 7.79375 -8.9275 7.5875 -8.375 7.375 C-4.9982346 5.42003056 -2.69525161 2.81776305 0 0 Z " transform="translate(755,532)" style="fill: #4D4986;"/><path d="M0 0 C2.88437779 1.29299694 4.87219421 2.65941363 7 5 C6.67 5.66 6.34 6.32 6 7 C4.68 6.67 3.36 6.34 2 6 C2 4.68 2 3.36 2 2 C1.34 2 0.68 2 0 2 C0 1.34 0 0.68 0 0 Z " transform="translate(706,502)" style="fill: #3B366B;"/><path d="M0 0 C1.17539996 0.92652701 2.34010577 1.86663387 3.5 2.8125 C4.1496875 3.33457031 4.799375 3.85664063 5.46875 4.39453125 C7 6 7 6 7 9 C6.67 8.34 6.34 7.68 6 7 C5.360625 6.731875 4.72125 6.46375 4.0625 6.1875 C1.31843292 4.60758259 0.93109876 2.9484794 0 0 Z " transform="translate(722,497)" style="fill: #D2D2E9;"/><path d="M0 0 C0 3 0 3 -2.5 5.6875 C-3.325 6.450625 -4.15 7.21375 -5 8 C-5.99 7.67 -6.98 7.34 -8 7 C-7.236875 6.401875 -6.47375 5.80375 -5.6875 5.1875 C-3.6516425 3.53040668 -1.8021721 1.89702326 0 0 Z " transform="translate(751,490)" style="fill: #434183;"/><path d="M0 0 C2.31 1.65 4.62 3.3 7 5 C5.68 5.33 4.36 5.66 3 6 C3 5.34 3 4.68 3 4 C1.68 4 0.36 4 -1 4 C-0.67 2.68 -0.34 1.36 0 0 Z " transform="translate(701,496)" style="fill: #48437D;"/><path d="M0 0 C0.99 0.33 1.98 0.66 3 1 C2.67 1.99 2.34 2.98 2 4 C0.35 4 -1.3 4 -3 4 C-3 3.34 -3 2.68 -3 2 C-2.01 1.34 -1.02 0.68 0 0 Z " transform="translate(745,526)" style="fill: #F7FBF9;"/></svg>