<svg id="svg" version="1.1" xmlns="http://www.w3.org/2000/svg" viewBox="0 0 1440 1024" style="display: block;"><path d="M0,0 L1440,0 L1440,1024 L0,1024 Z " transform="translate(0,0)" style="fill: #35327D;"/><path d="M0,0 L3,0 L3,1 L4,1 L4,2 L5,2 L5,3 L6,3 L6,4 L8,4 L8,5 L9,5 L9,6 L10,6 L10,7 L11,7 L11,8 L13,8 L13,10 L14,10 L14,11 L15,11 L15,12 L16,12 L16,13 L17,13 L17,15 L18,15 L18,16 L20,16 L20,17 L21,17 L21,18 L22,18 L22,19 L23,19 L23,21 L25,21 L25,22 L26,22 L26,23 L27,23 L27,24 L28,24 L28,25 L29,25 L29,26 L30,26 L30,27 L31,27 L31,29 L32,29 L32,30 L33,30 L33,31 L34,31 L34,32 L35,32 L35,35 L33,35 L33,37 L31,37 L31,39 L29,39 L29,40 L28,40 L28,42 L27,42 L27,43 L26,43 L26,44 L25,44 L25,45 L24,45 L24,46 L22,46 L22,48 L21,48 L21,49 L20,49 L20,50 L19,50 L19,51 L18,51 L18,52 L17,52 L17,53 L16,53 L16,54 L14,54 L14,56 L13,56 L13,57 L12,57 L12,58 L11,58 L11,59 L9,59 L9,61 L7,61 L7,62 L6,62 L6,64 L4,64 L4,66 L2,66 L2,65 L1,65 L1,64 L-1,64 L-1,63 L-2,63 L-2,62 L-3,62 L-3,61 L-4,61 L-4,60 L-5,60 L-5,59 L-6,59 L-6,56 L-5,56 L-5,55 L-4,55 L-4,54 L-3,54 L-3,53 L-2,53 L-2,52 L-1,52 L-1,51 L0,51 L0,50 L1,50 L1,48 L2,48 L2,47 L3,47 L3,46 L5,46 L5,45 L6,45 L6,44 L7,44 L7,43 L8,43 L8,42 L9,42 L9,41 L11,41 L11,39 L12,39 L12,38 L13,38 L13,37 L15,37 L15,34 L16,34 L16,32 L15,32 L15,31 L14,31 L14,30 L13,30 L13,29 L12,29 L12,28 L11,28 L11,26 L10,26 L10,25 L8,25 L8,23 L6,23 L6,22 L5,22 L5,21 L4,21 L4,20 L3,20 L3,19 L2,19 L2,18 L1,18 L1,17 L0,17 L0,16 L-1,16 L-1,14 L-2,14 L-2,13 L-4,13 L-4,11 L-6,11 L-6,10 L-7,10 L-7,9 L-8,9 L-8,7 L-6,7 L-6,6 L-5,6 L-5,5 L-4,5 L-4,4 L-3,4 L-3,3 L-2,3 L-2,2 L-1,2 L-1,1 L0,1 Z " transform="translate(697,475)" style="fill: #63629F;"/><path d="M0,0 L3,0 L3,1 L5,1 L5,2 L6,2 L6,3 L7,3 L7,4 L8,4 L8,5 L9,5 L9,6 L10,6 L10,7 L11,7 L11,10 L9,10 L9,11 L8,11 L8,12 L7,12 L7,13 L6,13 L6,14 L4,14 L4,16 L3,16 L3,17 L2,17 L2,19 L1,19 L1,20 L-3,20 L-3,19 L-4,19 L-4,18 L-5,18 L-5,17 L-6,17 L-6,16 L-7,16 L-7,15 L-8,15 L-8,14 L-9,14 L-9,13 L-10,13 L-10,10 L-9,10 L-9,9 L-8,9 L-8,8 L-7,8 L-7,7 L-6,7 L-6,6 L-4,6 L-4,3 L-2,3 L-2,2 L-1,2 L-1,1 L0,1 Z " transform="translate(748,474)" style="fill: #62619E;"/></svg>