<svg width="25" height="25" viewBox="0 0 25 25" fill="none" xmlns="http://www.w3.org/2000/svg">
<path d="M16.86 14.1479C16.94 13.4879 17 12.8279 17 12.1479C17 11.4679 16.94 10.8079 16.86 10.1479H20.24C20.4 10.7879 20.5 11.4579 20.5 12.1479C20.5 12.8379 20.4 13.5079 20.24 14.1479M15.09 19.7079C15.69 18.5979 16.15 17.3979 16.47 16.1479H19.42C18.4512 17.8162 16.9141 19.0799 15.09 19.7079ZM14.84 14.1479H10.16C10.06 13.4879 10 12.8279 10 12.1479C10 11.4679 10.06 10.7979 10.16 10.1479H14.84C14.93 10.7979 15 11.4679 15 12.1479C15 12.8279 14.93 13.4879 14.84 14.1479ZM12.5 20.1079C11.67 18.9079 11 17.5779 10.59 16.1479H14.41C14 17.5779 13.33 18.9079 12.5 20.1079ZM8.5 8.14795H5.58C6.53886 6.47516 8.0748 5.20944 9.9 4.58795C9.3 5.69795 8.85 6.89795 8.5 8.14795ZM5.58 16.1479H8.5C8.85 17.3979 9.3 18.5979 9.9 19.7079C8.07862 19.0796 6.54485 17.8157 5.58 16.1479ZM4.76 14.1479C4.6 13.5079 4.5 12.8379 4.5 12.1479C4.5 11.4579 4.6 10.7879 4.76 10.1479H8.14C8.06 10.8079 8 11.4679 8 12.1479C8 12.8279 8.06 13.4879 8.14 14.1479M12.5 4.17795C13.33 5.37795 14 6.71795 14.41 8.14795H10.59C11 6.71795 11.67 5.37795 12.5 4.17795ZM19.42 8.14795H16.47C16.157 6.90941 15.6936 5.71385 15.09 4.58795C16.93 5.21795 18.46 6.48795 19.42 8.14795ZM12.5 2.14795C6.97 2.14795 2.5 6.64795 2.5 12.1479C2.5 14.8001 3.55357 17.3437 5.42893 19.219C6.35752 20.1476 7.45991 20.8842 8.67317 21.3867C9.88642 21.8893 11.1868 22.1479 12.5 22.1479C15.1522 22.1479 17.6957 21.0944 19.5711 19.219C21.4464 17.3437 22.5 14.8001 22.5 12.1479C22.5 10.8347 22.2413 9.53437 21.7388 8.32111C21.2362 7.10786 20.4997 6.00547 19.5711 5.07688C18.6425 4.1483 17.5401 3.4117 16.3268 2.90915C15.1136 2.40661 13.8132 2.14795 12.5 2.14795Z" fill="white"/>
</svg>
